<?xml version="1.0" encoding="utf-8"?>
<svg version="1.1" xmlns:xlink="http://www.w3.org/1999/xlink" width="17px" height="21px" xmlns="http://www.w3.org/2000/svg">
  <g transform="matrix(1 0 0 1 -10 -10 )">
    <path d="M 16.887109375 15.1826171875  C 16.9623697916667 15.8707682291667  17 16.6022135416667  17 17.376953125  C 17 18.3704427083333  16.7233072916667 19.22265625  16.169921875 19.93359375  C 15.6165364583333 20.64453125  14.9502604166667 21  14.17109375 21  L 2.82890625 21  C 2.04973958333333 21  1.38346354166667 20.64453125  0.830078125 19.93359375  C 0.276692708333333 19.22265625  0 18.3704427083333  0 17.376953125  C 0 16.6022135416667  0.0376302083333334 15.8707682291667  0.112890625 15.1826171875  C 0.188151041666667 14.4944661458333  0.327604166666667 13.8017578125  0.53125 13.1044921875  C 0.734895833333334 12.4072265625  0.993880208333333 11.8102213541667  1.308203125 11.3134765625  C 1.62252604166667 10.8167317708333  2.038671875 10.4111328125  2.556640625 10.0966796875  C 3.074609375 9.7822265625  3.67005208333333 9.625  4.34296875 9.625  C 5.50286458333333 10.7916666666667  6.88854166666667 11.375  8.5 11.375  C 10.1114583333333 11.375  11.4971354166667 10.7916666666667  12.65703125 9.625  C 13.3299479166667 9.625  13.925390625 9.7822265625  14.443359375 10.0966796875  C 14.961328125 10.4111328125  15.3774739583333 10.8167317708333  15.691796875 11.3134765625  C 16.0061197916667 11.8102213541667  16.2651041666667 12.4072265625  16.46875 13.1044921875  C 16.6723958333333 13.8017578125  16.8118489583333 14.4944661458333  16.887109375 15.1826171875  Z M 12.105859375 1.5380859375  C 13.101953125 2.5634765625  13.6 3.80078125  13.6 5.25  C 13.6 6.69921875  13.101953125 7.9365234375  12.105859375 8.9619140625  C 11.109765625 9.9873046875  9.9078125 10.5  8.5 10.5  C 7.0921875 10.5  5.890234375 9.9873046875  4.894140625 8.9619140625  C 3.898046875 7.9365234375  3.4 6.69921875  3.4 5.25  C 3.4 3.80078125  3.898046875 2.5634765625  4.894140625 1.5380859375  C 5.890234375 0.5126953125  7.0921875 0  8.5 0  C 9.9078125 0  11.109765625 0.5126953125  12.105859375 1.5380859375  Z " fill-rule="nonzero" fill="#53a7fe" stroke="none" transform="matrix(1 0 0 1 10 10 )" />
  </g>
</svg>