<?xml version="1.0" encoding="utf-8"?>
<svg version="1.1" xmlns:xlink="http://www.w3.org/1999/xlink" width="16px" height="21px" xmlns="http://www.w3.org/2000/svg">
  <g transform="matrix(1 0 0 1 -11 -11 )">
    <path d="M 15.703125 12.6924715909091  C 15.9010416666667 12.8813920454545  16 13.1051136363636  16 13.3636363636364  C 16 13.6221590909091  15.9010416666667 13.8458806818182  15.703125 14.0348011363636  L 8.703125 20.7166193181818  C 8.50520833333333 20.9055397727273  8.27083333333333 21  8 21  C 7.72916666666667 21  7.49479166666667 20.9055397727273  7.296875 20.7166193181818  L 0.296875 14.0348011363636  C 0.0989583333333333 13.8458806818182  0 13.6221590909091  0 13.3636363636364  C 0 13.1051136363636  0.0989583333333333 12.8813920454545  0.296875 12.6924715909091  C 0.494791666666667 12.5035511363636  0.729166666666667 12.4090909090909  1 12  L 15 12  C 15.2708333333333 12.4090909090909  15.5052083333333 12.5035511363636  15.703125 12.6924715909091  Z M 15.703125 6.96519886363636  C 15.9010416666667 7.15411931818182  16 7.37784090909091  16 7.63636363636364  C 16 7.89488636363636  15.9010416666667 8.11860795454546  15.703125 8.30752840909091  C 15.5052083333333 8.49644886363637  15.2708333333333 8.59090909090909  15 9  L 1 9  C 0.729166666666667 8.59090909090909  0.494791666666667 8.49644886363637  0.296875 8.30752840909091  C 0.0989583333333333 8.11860795454546  0 7.89488636363636  0 7.63636363636364  C 0 7.37784090909091  0.0989583333333333 7.15411931818182  0.296875 6.96519886363636  L 7.296875 0.283380681818183  C 7.49479166666667 0.0944602272727253  7.72916666666667 0  8 0  C 8.27083333333333 0  8.50520833333333 0.0944602272727253  8.703125 0.283380681818183  L 15.703125 6.96519886363636  Z " fill-rule="nonzero" fill="#53a7fe" stroke="none" transform="matrix(1 0 0 1 11 11 )" />
  </g>
</svg>