<?xml version="1.0" encoding="utf-8"?>
<svg version="1.1" xmlns:xlink="http://www.w3.org/1999/xlink" width="15px" height="21px" xmlns="http://www.w3.org/2000/svg">
  <g transform="matrix(1 0 0 1 -11 -11 )">
    <path d="M 6.95068359375 16.812839673913  C 7.31689453125 16.4561820652174  7.5 16.0258152173913  7.5 15.5217391304348  C 7.5 15.179347826087  7.40234375 14.851222826087  7.20703125 14.5373641304348  C 7.197265625 14.5278532608696  7.12158203125 14.4208559782609  6.97998046875 14.2163722826087  C 6.83837890625 14.0118885869565  6.7138671875 13.8311820652174  6.6064453125 13.6742527173913  C 6.4990234375 13.5173233695652  6.376953125 13.3080842391304  6.240234375 13.046535326087  C 6.103515625 12.7849864130435  6.0009765625 12.5448369565217  5.9326171875 12.3260869565217  C 5.8935546875 12.1739130434783  5.791015625 12.0978260869565  5.625 12.0978260869565  C 5.458984375 12.0978260869565  5.3564453125 12.1739130434783  5.3173828125 12.3260869565217  C 5.2490234375 12.5448369565217  5.146484375 12.7849864130435  5.009765625 13.046535326087  C 4.873046875 13.3080842391304  4.7509765625 13.5173233695652  4.6435546875 13.6742527173913  C 4.5361328125 13.8311820652174  4.41162109375 14.0118885869565  4.27001953125 14.2163722826087  C 4.12841796875 14.4208559782609  4.052734375 14.5278532608696  4.04296875 14.5373641304348  C 3.84765625 14.851222826087  3.75 15.179347826087  3.75 15.5217391304348  C 3.75 16.0258152173913  3.93310546875 16.4561820652174  4.29931640625 16.812839673913  C 4.66552734375 17.1694972826087  5.107421875 17.3478260869565  5.625 17.3478260869565  C 6.142578125 17.3478260869565  6.58447265625 17.1694972826087  6.95068359375 16.812839673913  Z M 13.8134765625 9.77241847826087  C 14.6044921875 10.9802989130435  15 12.2880434782609  15 13.695652173913  C 15 15.7119565217391  14.267578125 17.4334239130435  12.802734375 18.8600543478261  C 11.337890625 20.2866847826087  9.5703125 21  7.5 21  C 5.4296875 21  3.662109375 20.2866847826087  2.197265625 18.8600543478261  C 0.732421875 17.4334239130435  0 15.7119565217391  0 13.695652173913  C 0 12.3165760869565  0.3955078125 11.0088315217391  1.1865234375 9.77241847826087  C 1.2451171875 9.68682065217391  1.55029296875 9.25645380434782  2.10205078125 8.48131793478261  C 2.65380859375 7.70618206521739  3.14697265625 6.98811141304348  3.58154296875 6.32710597826087  C 4.01611328125 5.66610054347826  4.501953125 4.81963315217391  5.0390625 3.78770380434783  C 5.576171875 2.75577445652174  5.9814453125 1.79755434782609  6.2548828125 0.913043478260869  C 6.3427734375 0.627717391304347  6.5087890625 0.404211956521737  6.7529296875 0.242527173913044  C 6.9970703125 0.0808423913043456  7.24609375 0  7.5 0  C 7.75390625 0  8.00537109375 0.0808423913043456  8.25439453125 0.242527173913044  C 8.50341796875 0.404211956521737  8.6669921875 0.627717391304347  8.7451171875 0.913043478260869  C 9.0185546875 1.79755434782609  9.423828125 2.75577445652174  9.9609375 3.78770380434783  C 10.498046875 4.81963315217391  10.98388671875 5.66610054347826  11.41845703125 6.32710597826087  C 11.85302734375 6.98811141304348  12.34619140625 7.70618206521739  12.89794921875 8.48131793478261  C 13.44970703125 9.25645380434782  13.7548828125 9.68682065217391  13.8134765625 9.77241847826087  Z " fill-rule="nonzero" fill="#ffffff" stroke="none" transform="matrix(1 0 0 1 11 11 )" />
  </g>
</svg>