<?xml version="1.0" encoding="utf-8"?>
<svg version="1.1" xmlns:xlink="http://www.w3.org/1999/xlink" width="21px" height="21px" xmlns="http://www.w3.org/2000/svg">
  <g transform="matrix(1 0 0 1 -16 -9 )">
    <path d="M 20.0184135977337 0  C 20.4348441926346 0  20.7273371104816 0.193892045454546  20.8958923512748 0.581676136363637  C 21.064447592068 0.989346590909089  20.9950424929178 1.33735795454545  20.6876770538244 1.62571022727273  L 13 8.97869318181818  L 13 20.0454545454545  C 13.3555240793201 20.4630681818182  13.1621813031161 20.7563920454545  12.7754957507082 20.9254261363636  C 12.6466005665722 20.9751420454545  12.5226628895184 21  12.4036827195467 21  C 12.1359773371105 21  11.9128895184136 20.9055397727273  11.7344192634561 20.7166193181818  L 7.92705382436261 16.8984375  C 7.73866855524079 16.7095170454545  7.64447592067989 16.4857954545455  7.64447592067989 16.2272727272727  L 7.64447592067989 8.97869318181818  L 0.312322946175637 1.62571022727273  C 0.00495750708215297 1.33735795454545  -0.0644475920679887 0.989346590909089  0.104107648725212 0.581676136363637  C 0.272662889518414 0.193892045454546  0.565155807365439 0  0.981586402266289 0  L 20.0184135977337 0  Z " fill-rule="nonzero" fill="#409eff" stroke="none" transform="matrix(1 0 0 1 16 9 )" />
  </g>
</svg>