<?xml version="1.0" encoding="utf-8"?>
<svg version="1.1" xmlns:xlink="http://www.w3.org/1999/xlink" width="21px" height="21px" xmlns="http://www.w3.org/2000/svg">
  <g transform="matrix(1 0 0 1 -16 -9 )">
    <path d="M 6.767578125 16.939453125  C 7.90690104166667 17.6048177083333  9.15104166666667 17.9375  10.5 17.9375  L 10.5 3.0625  C 9.15104166666667 3.0625  7.90690104166667 3.39518229166667  6.767578125 4.060546875  C 5.62825520833333 4.72591145833333  4.72591145833333 5.62825520833333  4.060546875 6.767578125  C 3.39518229166667 7.90690104166667  3.0625 9.15104166666667  3.0625 10.5  C 3.0625 11.8489583333333  3.39518229166667 13.0930989583333  4.060546875 14.232421875  C 4.72591145833333 15.3717447916667  5.62825520833333 16.2740885416667  6.767578125 16.939453125  Z M 19.591796875 5.2294921875  C 20.5305989583333 6.83821614583333  21 8.59505208333333  21 10.5  C 21 12.4049479166667  20.5305989583333 14.1617838541667  19.591796875 15.7705078125  C 18.6529947916667 17.3792317708333  17.3792317708333 18.6529947916667  15.7705078125 19.591796875  C 14.1617838541667 20.5305989583333  12.4049479166667 21  10.5 21  C 8.59505208333333 21  6.83821614583333 20.5305989583333  5.2294921875 19.591796875  C 3.62076822916667 18.6529947916667  2.34700520833333 17.3792317708333  1.408203125 15.7705078125  C 0.469401041666667 14.1617838541667  0 12.4049479166667  0 10.5  C 0 8.59505208333333  0.469401041666667 6.83821614583333  1.408203125 5.2294921875  C 2.34700520833333 3.62076822916667  3.62076822916667 2.34700520833333  5.2294921875 1.408203125  C 6.83821614583333 0.469401041666665  8.59505208333333 0  10.5 0  C 12.4049479166667 0  14.1617838541667 0.469401041666665  15.7705078125 1.408203125  C 17.3792317708333 2.34700520833333  18.6529947916667 3.62076822916667  19.591796875 5.2294921875  Z " fill-rule="nonzero" fill="#aaaaaa" stroke="none" transform="matrix(1 0 0 1 16 9 )" />
  </g>
</svg>