<?xml version="1.0" encoding="utf-8"?>
<svg version="1.1" xmlns:xlink="http://www.w3.org/1999/xlink" width="22px" height="21px" xmlns="http://www.w3.org/2000/svg">
  <g transform="matrix(1 0 0 1 -16 -9 )">
    <path d="M 0 4.5  L 11 0  L 22 4.5  L 22 6  L 20.5333333333333 6  C 20.5333333333333 6.203125  20.4550347222222 6.37890625  20.2984375 6.52734375  C 20.1418402777778 6.67578125  19.9565972222222 6.75  19.7427083333333 7  L 2.25729166666667 7  C 2.04340277777778 6.75  1.85815972222222 6.67578125  1.7015625 6.52734375  C 1.54496527777778 6.37890625  1.46666666666667 6.203125  1.46666666666667 6  L 0 6  L 0 4.5  Z M 2.93333333333333 16.5  L 2.93333333333333 7.5  L 5.86666666666667 7.5  L 5.86666666666667 16.5  L 7.33333333333333 16.5  L 7.33333333333333 7.5  L 10.2666666666667 7.5  L 10.2666666666667 16.5  L 11.7333333333333 16.5  L 11.7333333333333 7.5  L 14.6666666666667 7.5  L 14.6666666666667 16.5  L 16.1333333333333 16.5  L 16.1333333333333 7.5  L 19.0666666666667 7.5  L 19.0666666666667 16.5  L 19.7427083333333 16.5  C 19.9565972222222 16.5  20.1418402777778 16.57421875  20.2984375 16.72265625  C 20.4550347222222 16.87109375  20.5333333333333 17.046875  20.5333333333333 17.25  L 20.5333333333333 18  L 1.46666666666667 18  L 1.46666666666667 17.25  C 1.46666666666667 17.046875  1.54496527777778 16.87109375  1.7015625 16.72265625  C 1.85815972222222 16.57421875  2.04340277777778 16.5  2.25729166666667 16.5  L 2.93333333333333 16.5  Z M 0.790625 18.75  L 21.209375 18.75  C 21.4232638888889 18.75  21.6085069444444 18.82421875  21.7651041666667 18.97265625  C 21.9217013888889 19.12109375  22 19.296875  22 19.5  L 22 21  L 0 21  L 0 19.5  C 0 19.296875  0.0782986111111111 19.12109375  0.234895833333333 18.97265625  C 0.391493055555556 18.82421875  0.576736111111111 18.75  0.790625 18.75  Z " fill-rule="nonzero" fill="#aaaaaa" stroke="none" transform="matrix(1 0 0 1 16 9 )" />
  </g>
</svg>