<?xml version="1.0" encoding="utf-8"?>
<svg version="1.1" xmlns:xlink="http://www.w3.org/1999/xlink" width="14px" height="21px" xmlns="http://www.w3.org/2000/svg">
  <g transform="matrix(1 0 0 1 -19 -9 )">
    <path d="M 3.5546875 19.3046875  C 3.80989583333333 19.0494791666667  3.9375 18.7395833333333  3.9375 18.375  C 3.9375 18.0104166666667  3.80989583333333 17.7005208333333  3.5546875 17.4453125  C 3.29947916666667 17.1901041666667  2.98958333333333 17.0625  2.625 17.0625  C 2.26041666666667 17.0625  1.95052083333333 17.1901041666667  1.6953125 17.4453125  C 1.44010416666667 17.7005208333333  1.3125 18.0104166666667  1.3125 18.375  C 1.3125 18.7395833333333  1.44010416666667 19.0494791666667  1.6953125 19.3046875  C 1.95052083333333 19.5598958333333  2.26041666666667 19.6875  2.625 19.6875  C 2.98958333333333 19.6875  3.29947916666667 19.5598958333333  3.5546875 19.3046875  Z M 3.5546875 3.5546875  C 3.80989583333333 3.29947916666666  3.9375 2.98958333333333  3.9375 2.625  C 3.9375 2.26041666666667  3.80989583333333 1.95052083333333  3.5546875 1.6953125  C 3.29947916666667 1.44010416666667  2.98958333333333 1.3125  2.625 1.3125  C 2.26041666666667 1.3125  1.95052083333333 1.44010416666667  1.6953125 1.6953125  C 1.44010416666667 1.95052083333333  1.3125 2.26041666666667  1.3125 2.625  C 1.3125 2.98958333333333  1.44010416666667 3.29947916666666  1.6953125 3.5546875  C 1.95052083333333 3.80989583333333  2.26041666666667 3.9375  2.625 3.9375  C 2.98958333333333 3.9375  3.29947916666667 3.80989583333333  3.5546875 3.5546875  Z M 12.3046875 5.3046875  C 12.5598958333333 5.04947916666667  12.6875 4.73958333333333  12.6875 4.375  C 12.6875 4.01041666666667  12.5598958333333 3.70052083333333  12.3046875 3.4453125  C 12.0494791666667 3.19010416666667  11.7395833333333 3.0625  11.375 3.0625  C 11.0104166666667 3.0625  10.7005208333333 3.19010416666667  10.4453125 3.4453125  C 10.1901041666667 3.70052083333333  10.0625 4.01041666666667  10.0625 4.375  C 10.0625 4.73958333333333  10.1901041666667 5.04947916666667  10.4453125 5.3046875  C 10.7005208333333 5.55989583333333  11.0104166666667 5.6875  11.375 5.6875  C 11.7395833333333 5.6875  12.0494791666667 5.55989583333333  12.3046875 5.3046875  Z M 13.234375 2.515625  C 13.7447916666667 3.02604166666667  14 3.64583333333333  14 4.375  C 14 4.84895833333333  13.8815104166667 5.28873697916667  13.64453125 5.6943359375  C 13.4075520833333 6.09993489583333  13.0885416666667 6.41666666666667  12.6875 6.64453125  C 12.6692708333333 9.26041666666667  11.6393229166667 11.1471354166667  9.59765625 12.3046875  C 8.98697916666667 12.6510416666667  8.06184895833333 13.0201822916667  6.822265625 13.412109375  C 5.65559895833333 13.7766927083333  4.88313802083333 14.1002604166667  4.5048828125 14.3828125  C 4.12662760416667 14.6653645833333  3.9375 15.12109375  3.9375 15.75  L 3.9375 16.10546875  C 4.33854166666667 16.3333333333333  4.65755208333333 16.6500651041667  4.89453125 17.0556640625  C 5.13151041666667 17.4612630208333  5.25 17.9010416666667  5.25 18.375  C 5.25 19.1041666666667  4.99479166666667 19.7239583333333  4.484375 20.234375  C 3.97395833333333 20.7447916666667  3.35416666666667 21  2.625 21  C 1.89583333333333 21  1.27604166666667 20.7447916666667  0.765625 20.234375  C 0.255208333333333 19.7239583333333  0 19.1041666666667  0 18.375  C 0 17.9010416666667  0.118489583333333 17.4612630208333  0.35546875 17.0556640625  C 0.592447916666667 16.6500651041667  0.911458333333333 16.3333333333333  1.3125 16.10546875  L 1.3125 4.89453125  C 0.911458333333333 4.66666666666667  0.592447916666667 4.34993489583333  0.35546875 3.9443359375  C 0.118489583333333 3.53873697916667  0 3.09895833333333  0 2.625  C 0 1.89583333333333  0.255208333333333 1.27604166666667  0.765625 0.765625000000001  C 1.27604166666667 0.255208333333331  1.89583333333333 0  2.625 0  C 3.35416666666667 0  3.97395833333333 0.255208333333331  4.484375 0.765625000000001  C 4.99479166666667 1.27604166666667  5.25 1.89583333333333  5.25 2.625  C 5.25 3.09895833333333  5.13151041666667 3.53873697916667  4.89453125 3.9443359375  C 4.65755208333333 4.34993489583333  4.33854166666667 4.66666666666667  3.9375 4.89453125  L 3.9375 11.689453125  C 4.4296875 11.4524739583333  5.13151041666667 11.1927083333333  6.04296875 10.91015625  C 6.54427083333333 10.7552083333333  6.94303385416667 10.6207682291667  7.2392578125 10.5068359375  C 7.53548177083333 10.3929036458333  7.85677083333333 10.2516276041667  8.203125 10.0830078125  C 8.54947916666667 9.91438802083333  8.818359375 9.734375  9.009765625 9.54296875  C 9.201171875 9.3515625  9.3857421875 9.119140625  9.5634765625 8.845703125  C 9.7412109375 8.572265625  9.86881510416667 8.25553385416667  9.9462890625 7.8955078125  C 10.0237630208333 7.53548177083333  10.0625 7.11848958333333  10.0625 6.64453125  C 9.66145833333333 6.41666666666667  9.34244791666667 6.09993489583333  9.10546875 5.6943359375  C 8.86848958333333 5.28873697916667  8.75 4.84895833333333  8.75 4.375  C 8.75 3.64583333333333  9.00520833333333 3.02604166666667  9.515625 2.515625  C 10.0260416666667 2.00520833333333  10.6458333333333 1.75  11.375 1.75  C 12.1041666666667 1.75  12.7239583333333 2.00520833333333  13.234375 2.515625  Z " fill-rule="nonzero" fill="#409eff" stroke="none" transform="matrix(1 0 0 1 19 9 )" />
  </g>
</svg>