<?xml version="1.0" encoding="utf-8"?>
<svg version="1.1" xmlns:xlink="http://www.w3.org/1999/xlink" width="16px" height="21px" xmlns="http://www.w3.org/2000/svg">
  <g transform="matrix(1 0 0 1 -18 -9 )">
    <path d="M 7.90636430138991 14.9598662207358  C 8.01170446232626 15.108138238573  8.06047305535235 15.2720178372352  8.05267008046818 15.4515050167224  L 8.05267008046818 16.938127090301  C 8.044867105584 19.2168338907469  8.02145818093148 20.4069119286511  7.98244330651061 20.5083612040134  C 7.88880760790051 20.7580824972129  7.68983174835406 20.9141583054627  7.38551572787125 20.9765886287625  C 6.96415508412582 21.0468227424749  6.25603511338698 20.8985507246377  5.26115581565472 20.5317725752508  C 4.26627651792246 20.164994425864  3.63228480858327 19.8177257525084  3.35918068763716 19.4899665551839  C 3.25774201414289 19.3729096989967  3.19141672762741 19.2324414715719  3.16020482809071 19.0685618729097  C 3.15240185320654 18.9749163879599  3.16800780297488 18.8734671125975  3.20702267739576 18.7642140468227  C 3.23823457693246 18.6861761426979  3.37088514996342 18.5027870680045  3.60497439648866 18.2140468227425  C 3.8390636430139 17.9253065774805  4.5452328700317 17.082497212932  5.72348207754206 15.685618729097  C 5.73128505242624 15.685618729097  5.96537429895148 15.41248606466  6.42574981711778 14.866220735786  C 6.5427944403804 14.7179487179487  6.69690319434284 14.6223522853958  6.88807607900512 14.5794314381271  C 7.0792489636674 14.5365105908584  7.27237259205072 14.5501672240803  7.46744696415508 14.6204013377926  C 7.65471836137527 14.6984392419175  7.80102414045355 14.8115942028986  7.90636430138991 14.9598662207358  Z M 6.17410387710315 11.945652173913  C 6.27164106315533 12.1134336677815  6.31650816873933 12.3026755852843  6.30870519385516 12.5133779264214  C 6.28529626920263 12.9425863991081  6.0824189222141 13.2157190635452  5.70007315288954 13.3327759197324  L 4.29553767373811 13.7892976588629  C 2.1497195805901 14.4760312151616  1.01048524750061 14.819397993311  0.877834674469642 14.819397993311  C 0.604730553523531 14.8037904124861  0.394050231650817 14.6633221850613  0.2457937088515 14.3979933110368  C 0.152158010241405 14.2028985507246  0.0858327237259206 13.9102564102564  0.0468178493050476 13.5200668896321  C -0.0156059497683491 12.9269788182832  -0.0117044623262619 12.2773132664437  0.0585223116313094 11.5710702341137  C 0.128749085588881 10.8648272017837  0.2457937088515 10.3790412486065  0.409656181419166 10.1137123745819  C 0.573518653986832 9.84838350055741  0.792001950743721 9.72352285395764  1.06510607168983 9.73913043478261  C 1.1665447451841 9.73913043478261  1.95464520848574 10.0395763656633  3.42940746159473 10.6404682274247  C 3.98341867837113 10.8667781493868  4.43208973421117 11.0501672240803  4.77542062911485 11.190635451505  L 5.75859546452085 11.5886287625418  C 5.93806388685686 11.6588628762542  6.07656669105096 11.7778706800446  6.17410387710315 11.945652173913  Z M 15.7190929041697 15.2759197324415  C 15.9375762009266 15.4476031215162  16.0234089246525 15.685618729097  15.9765910753475 15.9899665551839  C 15.9219702511583 16.4113712374582  15.5649841502073 17.0395763656633  14.9056327724945 17.8745819397993  C 14.2462813947818 18.7095875139353  13.7176298463789 19.2051282051282  13.319678127286 19.3612040133779  C 13.0309680565716 19.4704570791527  12.7851743477201 19.443143812709  12.5822970007315 19.2792642140468  C 12.4730553523531 19.201226309922  11.755181663009 18.0813823857302  10.4286759326993 15.9197324414716  L 9.87856620336503 15.0183946488294  C 9.76932455498659 14.8545150501672  9.72445744940259 14.67502787068  9.74396488661302 14.4799331103679  C 9.76347232382346 14.2848383500557  9.83955132894416 14.1053511705686  9.97220190197513 13.9414715719064  C 10.2453060229212 13.6059085841695  10.5691294806145 13.5044593088071  10.9436722750549 13.6371237458194  C 10.951475249939 13.6449275362319  11.4157522555474 13.8010033444816  12.33650329188 14.1053511705686  C 13.9205071933675 14.6204013377926  14.8646671543526 14.930602006689  15.1689831748354 15.0359531772575  C 15.4732991953182 15.1413043478261  15.6566691050963 15.2212931995541  15.7190929041697 15.2759197324415  Z M 7.8302852962692 4.14966555183946  C 7.97854181906852 6.39325529542921  8.07217751767862 7.87402452619844  8.11119239209949 8.59197324414716  C 8.15020726652036 9.38795986622073  7.93952694464765 9.86399108138238  7.47915142648135 10.0200668896321  C 7.02657888319922 10.1527313266444  6.58180931480127 9.87569676700111  6.14484272128749 9.18896321070234  L 1.7205559619605 2.18896321070234  C 1.6581321628871 1.91583054626533  1.73226042428676 1.67391304347826  1.94294074615947 1.46321070234114  C 2.26286271641063 1.12764771460423  3.07242136064375 0.778428093645485  4.37161667885881 0.415551839464882  C 5.67081199707388 0.0526755852842774  6.54669592782248 -0.0702341137123792  6.99926847110461 0.0468227424749171  C 7.31138746647159 0.124860646599774  7.50256035113387 0.300445930880711  7.57278712509144 0.573578595317726  C 7.59619604974396 0.714046822742475  7.68202877346989 1.90607580824972  7.8302852962692 4.14966555183946  Z M 15.8595464520849 9.82107023411371  L 15.8595464520849 9.8561872909699  C 15.8829553767374 10.1605351170569  15.7815167032431 10.3907469342252  15.555230431602 10.5468227424749  C 15.4381858083394 10.6248606465998  14.1545964398927 10.9604236343367  11.7044623262619 11.5535117056856  C 11.1816630090222 11.6705685618729  10.8266276517922 11.7603121516165  10.6393562545721 11.8227424749164  L 10.6510607168983 11.7993311036789  C 10.4715922945623 11.8461538461538  10.2921238722263 11.8305462653289  10.1126554498903 11.752508361204  C 9.93318702755426 11.6744704570792  9.78883199219703 11.5496098104794  9.67959034381858 11.3779264214047  C 9.44550109729335 11.0111482720178  9.44550109729335 10.6716833890747  9.67959034381858 10.3595317725753  C 9.68739331870276 10.3517279821628  9.9800048768593 9.95373467112597  10.5574250182882 9.16555183946488  C 11.53279687881 7.83110367892977  12.1180199951231 7.03511705685619  12.3130943672275 6.77759197324415  C 12.5081687393319 6.52006688963211  12.6408193123628 6.36789297658863  12.7110460863204 6.32107023411371  C 12.9295293830773 6.17279821627648  13.183126066813 6.16499442586399  13.4718361375274 6.29765886287625  C 13.8463789319678 6.47714604236343  14.3262618873446 6.99804905239688  14.9114850036576 7.86036789297659  C 15.4967081199707 8.7226867335563  15.8127286027798 9.37625418060201  15.8595464520849 9.82107023411371  Z " fill-rule="nonzero" fill="#aaaaaa" stroke="none" transform="matrix(1 0 0 1 18 9 )" />
  </g>
</svg>