<?xml version="1.0" encoding="utf-8"?>
<svg version="1.1" xmlns:xlink="http://www.w3.org/1999/xlink" width="21px" height="21px" xmlns="http://www.w3.org/2000/svg">
  <g transform="matrix(1 0 0 1 -16 -9 )">
    <path d="M 9.501953125 16.939453125  C 9.583984375 16.857421875  9.625 16.7526041666667  10 16.625  L 10 2.625  C 9.625 2.49739583333333  9.583984375 2.392578125  9.501953125 2.310546875  C 9.419921875 2.228515625  9.31510416666667 2.1875  9.1875 2.1875  L 2.625 2.1875  C 2.49739583333333 2.1875  2.392578125 2.228515625  2.310546875 2.310546875  C 2.228515625 2.392578125  2.1875 2.49739583333333  2.1875 2.625  L 2.1875 16.625  C 2.1875 16.7526041666667  2.228515625 16.857421875  2.310546875 16.939453125  C 2.392578125 17.021484375  2.49739583333333 17.0625  2.625 17.0625  L 9.1875 17.0625  C 9.31510416666667 17.0625  9.419921875 17.021484375  9.501953125 16.939453125  Z M 18.689453125 11.689453125  C 18.771484375 11.607421875  18.8125 11.5026041666667  18.8125 11.375  L 18.8125 2.625  C 18.8125 2.49739583333333  18.771484375 2.392578125  18.689453125 2.310546875  C 18.607421875 2.228515625  18.5026041666667 2.1875  18.375 2.1875  L 11.8125 2.1875  C 11.6848958333333 2.1875  11.580078125 2.228515625  11.498046875 2.310546875  C 11.416015625 2.392578125  11.375 2.49739583333333  11.375 2.625  L 11.375 11.375  C 11.375 11.5026041666667  11.416015625 11.607421875  11.498046875 11.689453125  C 11.580078125 11.771484375  11.6848958333333 11.8125  11.8125 11.8125  L 18.375 11.8125  C 18.5026041666667 11.8125  18.607421875 11.771484375  18.689453125 11.689453125  Z M 20.740234375 0.259765624999999  C 20.9134114583333 0.43294270833333  21 0.63802083333333  21 0.874999999999999  L 21 20.125  C 21 20.3619791666667  20.9134114583333 20.5670572916667  20.740234375 20.740234375  C 20.5670572916667 20.9134114583333  20.3619791666667 21  20.125 21  L 0.875 21  C 0.638020833333333 21  0.432942708333333 20.9134114583333  0.259765625 20.740234375  C 0.0865885416666667 20.5670572916667  0 20.3619791666667  0 20.125  L 0 0.874999999999999  C 0 0.63802083333333  0.0865885416666667 0.43294270833333  0.259765625 0.259765624999999  C 0.432942708333333 0.0865885416666656  0.638020833333333 0  0.875 0  L 20.125 0  C 20.3619791666667 0  20.5670572916667 0.0865885416666656  20.740234375 0.259765624999999  Z " fill-rule="nonzero" fill="#409eff" stroke="none" transform="matrix(1 0 0 1 16 9 )" />
  </g>
</svg>