<?xml version="1.0" encoding="utf-8"?>
<svg version="1.1" xmlns:xlink="http://www.w3.org/1999/xlink" width="22px" height="20px" xmlns="http://www.w3.org/2000/svg">
  <g transform="matrix(1 0 0 1 -15 -10 )">
    <path d="M 0 16.3636363636364  L 5.04166666666667 16.3636363636364  L 5.04166666666667 18.1818181818182  L 0 18.1818181818182  L 0 16.3636363636364  Z M 6.41666666666667 14.5454545454545  L 10.0833333333333 14.5454545454545  C 10.3315972222222 14.5454545454545  10.5464409722222 14.6354166666667  10.7278645833333 14.8153409090909  C 10.9092881944444 14.9952651515152  11 15.2083333333333  11 15.4545454545455  L 11 19.0909090909091  C 11 19.3371212121212  10.9092881944444 19.5501893939394  10.7278645833333 19.7301136363636  C 10.5464409722222 19.9100378787879  10.3315972222222 20  10.0833333333333 20  L 6.41666666666667 20  C 6.16840277777778 20  5.95355902777778 19.9100378787879  5.77213541666667 19.7301136363636  C 5.59071180555556 19.5501893939394  5.5 19.3371212121212  5.5 19.0909090909091  L 5.5 15.4545454545455  C 5.5 15.2083333333333  5.59071180555556 14.9952651515152  5.77213541666667 14.8153409090909  C 5.95355902777778 14.6354166666667  6.16840277777778 14.5454545454545  6.41666666666667 14.5454545454545  Z M 0 9  L 12.375 9  L 12.375 11  L 0 11  L 0 9  Z M 0 1.81818181818182  L 3.20833333333333 1.81818181818182  L 3.20833333333333 3.63636363636364  L 0 3.63636363636364  L 0 1.81818181818182  Z M 11.4583333333333 16  L 22 16  L 22 18  L 11.4583333333333 18  L 11.4583333333333 16  Z M 4.58333333333333 0  L 8.25 0  C 8.49826388888889 0  8.71310763888889 0.0899621212121193  8.89453125 0.269886363636365  C 9.07595486111111 0.449810606060603  9.16666666666667 0.662878787878787  9.16666666666667 0.909090909090908  L 9.16666666666667 4.54545454545455  C 9.16666666666667 4.79166666666667  9.07595486111111 5.00473484848485  8.89453125 5.18465909090909  C 8.71310763888889 5.36458333333333  8.49826388888889 5.45454545454545  8.25 5.45454545454545  L 4.58333333333333 5.45454545454545  C 4.33506944444444 5.45454545454545  4.12022569444444 5.36458333333333  3.93880208333333 5.18465909090909  C 3.75737847222222 5.00473484848485  3.66666666666667 4.79166666666667  3.66666666666667 4.54545454545455  L 3.66666666666667 0.909090909090908  C 3.66666666666667 0.662878787878787  3.75737847222222 0.449810606060603  3.93880208333333 0.269886363636365  C 4.12022569444444 0.0899621212121193  4.33506944444444 0  4.58333333333333 0  Z M 13.75 7.27272727272727  L 17.4166666666667 7.27272727272727  C 17.6649305555556 7.27272727272727  17.8797743055556 7.36268939393939  18.0611979166667 7.54261363636363  C 18.2426215277778 7.72253787878788  18.3333333333333 7.93560606060606  18.3333333333333 8.18181818181818  L 18.3333333333333 11.8181818181818  C 18.3333333333333 12.0643939393939  18.2426215277778 12.2774621212121  18.0611979166667 12.4573863636364  C 17.8797743055556 12.6373106060606  17.6649305555556 12.7272727272727  17.4166666666667 12.7272727272727  L 13.75 12.7272727272727  C 13.5017361111111 12.7272727272727  13.2868923611111 12.6373106060606  13.10546875 12.4573863636364  C 12.9240451388889 12.2774621212121  12.8333333333333 12.0643939393939  12.8333333333333 11.8181818181818  L 12.8333333333333 8.18181818181818  C 12.8333333333333 7.93560606060606  12.9240451388889 7.72253787878788  13.10546875 7.54261363636363  C 13.2868923611111 7.36268939393939  13.5017361111111 7.27272727272727  13.75 7.27272727272727  Z M 18.7916666666667 9.09090909090909  L 22 9.09090909090909  L 22 10.9090909090909  L 18.7916666666667 10.9090909090909  L 18.7916666666667 9.09090909090909  Z M 9.625 2  L 22 2  L 22 4  L 9.625 4  L 9.625 2  Z " fill-rule="nonzero" fill="#aaaaaa" stroke="none" transform="matrix(1 0 0 1 15 10 )" />
  </g>
</svg>