<?xml version="1.0" encoding="utf-8"?>
<svg version="1.1" xmlns:xlink="http://www.w3.org/1999/xlink" width="18px" height="21px" xmlns="http://www.w3.org/2000/svg">
  <g transform="matrix(1 0 0 1 -17 -9 )">
    <path d="M 13.546875 0.796875000000001  L 17.203125 4.453125  C 17.421875 4.671875  17.609375 4.96875  17.765625 5.34375  C 17.921875 5.71875  18 6.0625  18 6.375  L 18 19.875  C 18 20.1875  17.890625 20.453125  17.671875 20.671875  C 17.453125 20.890625  17.1875 21  16.875 21  L 1.125 21  C 0.8125 21  0.546875 20.890625  0.328125 20.671875  C 0.109375 20.453125  0 20.1875  0 19.875  L 0 1.125  C 0 0.812499999999999  0.109375 0.546874999999999  0.328125 0.328125  C 0.546875 0.109375000000001  0.8125 0  1.125 0  L 11.625 0  C 11.9375 0  12.28125 0.0781250000000009  12.65625 0.234375  C 13.03125 0.390625  13.328125 0.578124999999999  13.546875 0.796875000000001  Z M 12.48046875 1.8515625  C 12.38671875 1.7578125  12.2265625 1.671875  12 1.59375  L 12 6  L 16.40625 6  C 16.328125 5.7734375  16.2421875 5.61328125  16.1484375 5.51953125  L 12.48046875 1.8515625  Z M 1.5 19.5  L 16.5 19.5  L 16.5 7.5  L 11.625 7.5  C 11.3125 7.5  11.046875 7.390625  10.828125 7.171875  C 10.609375 6.953125  10.5 6.6875  10.5 6.375  L 10.5 1.5  L 1.5 1.5  L 1.5 19.5  Z M 11.25 10.5  L 15 14.25  L 15 18  L 3 18  L 3 15.75  L 5.25 13.5  L 6.75 15  L 11.25 10.5  Z M 6.84375 11.34375  C 6.40625 11.78125  5.875 12  5.25 12  C 4.625 12  4.09375 11.78125  3.65625 11.34375  C 3.21875 10.90625  3 10.375  3 9.75  C 3 9.125  3.21875 8.59375  3.65625 8.15625  C 4.09375 7.71875  4.625 7.5  5.25 7.5  C 5.875 7.5  6.40625 7.71875  6.84375 8.15625  C 7.28125 8.59375  7.5 9.125  7.5 9.75  C 7.5 10.375  7.28125 10.90625  6.84375 11.34375  Z " fill-rule="nonzero" fill="#409eff" stroke="none" transform="matrix(1 0 0 1 17 9 )" />
  </g>
</svg>