<?xml version="1.0" encoding="utf-8"?>
<svg version="1.1" xmlns:xlink="http://www.w3.org/1999/xlink" width="18px" height="21px" xmlns="http://www.w3.org/2000/svg">
  <g transform="matrix(1 0 0 1 -17 -9 )">
    <path d="M 13.546875 0.796875000000001  L 17.203125 4.453125  C 17.421875 4.671875  17.609375 4.96875  17.765625 5.34375  C 17.921875 5.71875  18 6.0625  18 6.375  L 18 19.875  C 18 20.1875  17.890625 20.453125  17.671875 20.671875  C 17.453125 20.890625  17.1875 21  16.875 21  L 1.125 21  C 0.8125 21  0.546875 20.890625  0.328125 20.671875  C 0.109375 20.453125  0 20.1875  0 19.875  L 0 1.125  C 0 0.812499999999999  0.109375 0.546874999999999  0.328125 0.328125  C 0.546875 0.109375000000001  0.8125 0  1.125 0  L 11.625 0  C 11.9375 0  12.28125 0.0781250000000009  12.65625 0.234375  C 13.03125 0.390625  13.328125 0.578124999999999  13.546875 0.796875000000001  Z M 12.48046875 1.8515625  C 12.38671875 1.7578125  12.2265625 1.671875  12 1.59375  L 12 6  L 16.40625 6  C 16.328125 5.7734375  16.2421875 5.61328125  16.1484375 5.51953125  L 12.48046875 1.8515625  Z M 1.5 19.5  L 16.5 19.5  L 16.5 7.5  L 11.625 7.5  C 11.3125 7.5  11.046875 7.390625  10.828125 7.171875  C 10.609375 6.953125  10.5 6.6875  10.5 6.375  L 10.5 1.5  L 1.5 1.5  L 1.5 19.5  Z M 4.5 9  L 9 9  C 9.40625 9  9.7578125 9.1484375  10.0546875 9.4453125  C 10.3515625 9.7421875  10.5 10.09375  10.5 10.5  L 10.5 15  C 10.5 15.40625  10.3515625 15.7578125  10.0546875 16.0546875  C 9.7578125 16.3515625  9.40625 16.5  9 16.5  L 4.5 16.5  C 4.09375 16.5  3.7421875 16.3515625  3.4453125 16.0546875  C 3.1484375 15.7578125  3 15.40625  3 15  L 3 10.5  C 3 10.09375  3.1484375 9.7421875  3.4453125 9.4453125  C 3.7421875 9.1484375  4.09375 9  4.5 9  Z M 14.625 9  C 14.65625 9  14.703125 9.0078125  14.765625 9.0234375  C 14.921875 9.0859375  15 9.203125  15 9.375  L 15 16.125  C 15 16.296875  14.921875 16.4140625  14.765625 16.4765625  C 14.703125 16.4921875  14.65625 16.5  14.625 16.5  C 14.515625 16.5  14.42578125 16.46484375  14.35546875 16.39453125  L 11.25 13.27734375  L 11.25 12.22265625  L 14.35546875 9.10546875  C 14.42578125 9.03515625  14.515625 9  14.625 9  Z " fill-rule="nonzero" fill="#aaaaaa" stroke="none" transform="matrix(1 0 0 1 17 9 )" />
  </g>
</svg>