<?xml version="1.0" encoding="utf-8"?>
<svg version="1.1" xmlns:xlink="http://www.w3.org/1999/xlink" width="16px" height="21px" xmlns="http://www.w3.org/2000/svg">
  <g transform="matrix(1 0 0 1 -18 -9 )">
    <path d="M 15.8920454545455 19.611328125  C 15.9640151515152 19.685546875  16 19.7734375  16 19.875  L 16 20.625  C 16 20.7265625  15.9640151515152 20.814453125  15.8920454545455 20.888671875  C 15.8200757575758 20.962890625  15.7348484848485 21  15.6363636363636 21  L 0.363636363636364 21  C 0.265151515151515 21  0.179924242424242 20.962890625  0.107954545454545 20.888671875  C 0.0359848484848485 20.814453125  0 20.7265625  0 20.625  L 0 19.875  C 0 19.7734375  0.0359848484848485 19.685546875  0.107954545454545 19.611328125  C 0.179924242424242 19.537109375  0.265151515151515 19.5  0.363636363636364 19.5  L 15.6363636363636 19.5  C 15.7348484848485 19.5  15.8200757575758 19.537109375  15.8920454545455 19.611328125  Z M 12.7784090909091 5.34375  C 12.9867424242424 6.015625  13.0909090909091 6.734375  13.0909090909091 7.5  C 13.0909090909091 8.109375  12.9981060606061 8.671875  12.8125 9.1875  C 12.6268939393939 9.703125  12.3844696969697 10.142578125  12.0852272727273 10.505859375  C 11.7859848484848 10.869140625  11.4545454545455 11.212890625  11.0909090909091 11.537109375  C 10.7272727272727 11.861328125  10.3636363636364 12.1640625  10 12.4453125  C 9.63636363636364 12.7265625  9.30492424242424 13.0078125  9.00568181818182 13.2890625  C 8.70643939393939 13.5703125  8.46401515151515 13.888671875  8.27840909090909 14.244140625  C 8.09280303030303 14.599609375  8 14.9765625  8 15.375  C 8 16.125  8.25378787878788 17  8.76136363636364 18  L 8.71590909090909 17.98828125  L 8.72727272727273 18  C 8.04545454545455 17.6796875  7.43939393939394 17.35546875  6.90909090909091 17.02734375  C 6.37878787878788 16.69921875  5.85416666666667 16.30859375  5.33522727272727 15.85546875  C 4.81628787878788 15.40234375  4.38636363636364 14.923828125  4.04545454545455 14.419921875  C 3.70454545454545 13.916015625  3.42992424242424 13.328125  3.22159090909091 12.65625  C 3.01325757575758 11.984375  2.90909090909091 11.265625  2.90909090909091 10.5  C 2.90909090909091 9.890625  3.00189393939394 9.328125  3.1875 8.8125  C 3.37310606060606 8.296875  3.6155303030303 7.857421875  3.91477272727273 7.494140625  C 4.21401515151515 7.130859375  4.54545454545455 6.787109375  4.90909090909091 6.462890625  C 5.27272727272727 6.138671875  5.63636363636364 5.8359375  6 5.5546875  C 6.36363636363636 5.2734375  6.69507575757576 4.9921875  6.99431818181818 4.7109375  C 7.29356060606061 4.4296875  7.53598484848485 4.111328125  7.72159090909091 3.755859375  C 7.90719696969697 3.400390625  8 3.0234375  8 2.625  C 8 1.890625  7.75 1.015625  7.25 0  L 7.28409090909091 0.0117187499999997  L 7.27272727272727 0  C 7.95454545454545 0.320312499999999  8.56060606060606 0.64453125  9.09090909090909 0.97265625  C 9.62121212121212 1.30078125  10.1458333333333 1.69140625  10.6647727272727 2.14453125  C 11.1837121212121 2.59765625  11.6136363636364 3.076171875  11.9545454545455 3.580078125  C 12.2954545454545 4.083984375  12.5700757575758 4.671875  12.7784090909091 5.34375  Z " fill-rule="nonzero" fill="#409eff" stroke="none" transform="matrix(1 0 0 1 18 9 )" />
  </g>
</svg>