<?xml version="1.0" encoding="utf-8"?>
<svg version="1.1" xmlns:xlink="http://www.w3.org/1999/xlink" width="22px" height="21px" xmlns="http://www.w3.org/2000/svg">
  <g transform="matrix(1 0 0 1 -15 -9 )">
    <path d="M 16.671875 19.070625  C 16.8393429487179 18.904375  16.9230769230769 18.7075  16.9230769230769 18.48  C 16.9230769230769 18.2525  16.8393429487179 18.055625  16.671875 17.889375  C 16.5044070512821 17.723125  16.3060897435897 17.64  16.0769230769231 17.64  C 15.8477564102564 17.64  15.6494391025641 17.723125  15.4819711538462 17.889375  C 15.3145032051282 18.055625  15.2307692307692 18.2525  15.2307692307692 18.48  C 15.2307692307692 18.7075  15.3145032051282 18.904375  15.4819711538462 19.070625  C 15.6494391025641 19.236875  15.8477564102564 19.32  16.0769230769231 19.32  C 16.3060897435897 19.32  16.5044070512821 19.236875  16.671875 19.070625  Z M 20.0564903846154 19.070625  C 20.2239583333333 18.904375  20.3076923076923 18.7075  20.3076923076923 18.48  C 20.3076923076923 18.2525  20.2239583333333 18.055625  20.0564903846154 17.889375  C 19.8890224358974 17.723125  19.6907051282051 17.64  19.4615384615385 17.64  C 19.2323717948718 17.64  19.0340544871795 17.723125  18.8665865384615 17.889375  C 18.6991185897436 18.055625  18.6153846153846 18.2525  18.6153846153846 18.48  C 18.6153846153846 18.7075  18.6991185897436 18.904375  18.8665865384615 19.070625  C 19.0340544871795 19.236875  19.2323717948718 19.32  19.4615384615385 19.32  C 19.6907051282051 19.32  19.8890224358974 19.236875  20.0564903846154 19.070625  Z M 21.6298076923077 14.6475  C 21.8766025641026 14.8925  22 15.19  22 15.54  L 22 19.74  C 22 20.09  21.8766025641026 20.3875  21.6298076923077 20.6325  C 21.3830128205128 20.8775  21.0833333333333 21  20.7307692307692 21  L 1.26923076923077 21  C 0.916666666666667 21  0.61698717948718 20.8775  0.370192307692308 20.6325  C 0.123397435897436 20.3875  0 20.09  0 19.74  L 0 15.54  C 0 15.19  0.123397435897436 14.8925  0.370192307692308 14.6475  C 0.61698717948718 14.4025  0.916666666666667 14.28  1.26923076923077 14.28  L 6.91466346153846 14.28  C 7.09975961538462 14.77  7.41045673076923 15.1725  7.84675480769231 15.4875  C 8.28305288461539 15.8025  8.77003205128205 15.96  9.30769230769231 15.96  L 12.6923076923077 15.96  C 13.2299679487179 15.96  13.7169471153846 15.8025  14.1532451923077 15.4875  C 14.5895432692308 15.1725  14.9002403846154 14.77  15.0853365384615 14.28  L 20.7307692307692 14.28  C 21.0833333333333 14.28  21.3830128205128 14.4025  21.6298076923077 14.6475  Z M 17.5180288461538 6.129375  C 17.791266025641 6.391875  17.8529647435897 6.69375  17.703125 7.035  C 17.5532852564103 7.385  17.2932692307692 7.56  16.9230769230769 7.56  L 13.5384615384615 7.56  L 13.5384615384615 13.44  C 13.5384615384615 13.6675  13.4547275641026 13.864375  13.2872596153846 14.030625  C 13.1197916666667 14.196875  12.9214743589744 14.28  12.6923076923077 14.28  L 9.30769230769231 14.28  C 9.07852564102564 14.28  8.88020833333333 14.196875  8.71274038461539 14.030625  C 8.54527243589744 13.864375  8.46153846153846 13.6675  8.46153846153846 13.44  L 8.46153846153846 7.56  L 5.07692307692308 7.56  C 4.70673076923077 7.56  4.44671474358974 7.385  4.296875 7.035  C 4.14703525641026 6.69375  4.20873397435897 6.391875  4.48197115384615 6.129375  L 10.4050480769231 0.249374999999999  C 10.5637019230769 0.083124999999999  10.7620192307692 0  11 0  C 11.2379807692308 0  11.4362980769231 0.083124999999999  11.5949519230769 0.249374999999999  L 17.5180288461538 6.129375  Z " fill-rule="nonzero" fill="#aaaaaa" stroke="none" transform="matrix(1 0 0 1 15 9 )" />
  </g>
</svg>