<?xml version="1.0" encoding="utf-8"?>
<svg version="1.1" xmlns:xlink="http://www.w3.org/1999/xlink" width="21px" height="21px" xmlns="http://www.w3.org/2000/svg">
  <g transform="matrix(1 0 0 1 -16 -9 )">
    <path d="M 5.2294921875 1.408203125  C 6.83821614583333 0.469401041666665  8.59505208333333 0  10.5 0  C 12.4049479166667 0  14.1617838541667 0.469401041666665  15.7705078125 1.408203125  C 17.3792317708333 2.34700520833333  18.6529947916667 3.62076822916667  19.591796875 5.2294921875  C 20.5305989583333 6.83821614583333  21 8.59505208333333  21 10.5  C 21 12.4049479166667  20.5305989583333 14.1617838541667  19.591796875 15.7705078125  C 18.6529947916667 17.3792317708333  17.3792317708333 18.6529947916667  15.7705078125 19.591796875  C 14.1617838541667 20.5305989583333  12.4049479166667 21  10.5 21  C 8.59505208333333 21  6.83821614583333 20.5305989583333  5.2294921875 19.591796875  C 3.62076822916667 18.6529947916667  2.34700520833333 17.3792317708333  1.408203125 15.7705078125  C 0.469401041666667 14.1617838541667  0 12.4049479166667  0 10.5  C 0 8.59505208333333  0.469401041666667 6.83821614583333  1.408203125 5.2294921875  C 2.34700520833333 3.62076822916667  3.62076822916667 2.34700520833333  5.2294921875 1.408203125  Z M 14.833984375 6.958984375  C 14.6790364583333 6.91341145833333  14.4830729166667 6.96809895833333  14.24609375 7.123046875  C 14.2278645833333 7.13216145833333  14.1845703125 7.17545572916667  14.1162109375 7.2529296875  C 14.0478515625 7.33040364583333  13.986328125 7.37369791666667  13.931640625 7.3828125  C 13.9498697916667 7.3828125  13.9703776041667 7.36002604166667  13.9931640625 7.314453125  C 14.0159505208333 7.26888020833333  14.0387369791667 7.21875  14.0615234375 7.1640625  C 14.0843098958333 7.109375  14.1002604166667 7.07747395833333  14.109375 7.068359375  C 14.1640625 7.00455729166667  14.2643229166667 6.93619791666667  14.41015625 6.86328125  C 14.5377604166667 6.80859375  14.7747395833333 6.75390625  15.12109375 6.69921875  C 15.4309895833333 6.62630208333333  15.6634114583333 6.67643229166667  15.818359375 6.849609375  C 15.8001302083333 6.83138020833333  15.8434244791667 6.77213541666667  15.9482421875 6.671875  C 16.0530598958333 6.57161458333333  16.119140625 6.51692708333333  16.146484375 6.5078125  C 16.173828125 6.48958333333333  16.2421875 6.46907552083333  16.3515625 6.4462890625  C 16.4609375 6.42350260416667  16.529296875 6.38932291666667  16.556640625 6.34375  L 16.583984375 6.04296875  C 16.474609375 6.05208333333333  16.3948567708333 6.02018229166667  16.3447265625 5.947265625  C 16.2945963541667 5.87434895833333  16.2649739583333 5.77864583333333  16.255859375 5.66015625  C 16.255859375 5.67838541666667  16.228515625 5.71484375  16.173828125 5.76953125  C 16.173828125 5.70572916666667  16.1533203125 5.66927083333333  16.1123046875 5.66015625  C 16.0712890625 5.65104166666667  16.0188802083333 5.65559895833333  15.955078125 5.673828125  C 15.8912760416667 5.69205729166667  15.8502604166667 5.69661458333333  15.83203125 5.6875  C 15.7408854166667 5.66015625  15.6725260416667 5.6259765625  15.626953125 5.5849609375  C 15.5813802083333 5.5439453125  15.544921875 5.46875  15.517578125 5.359375  C 15.490234375 5.25  15.4720052083333 5.181640625  15.462890625 5.154296875  C 15.4446614583333 5.10872395833333  15.4013671875 5.05859375  15.3330078125 5.00390625  C 15.2646484375 4.94921875  15.2213541666667 4.90364583333333  15.203125 4.8671875  C 15.1940104166667 4.84895833333333  15.1826171875 4.82389322916667  15.1689453125 4.7919921875  C 15.1552734375 4.76009114583333  15.1416015625 4.73046875  15.1279296875 4.703125  C 15.1142578125 4.67578125  15.0960286458333 4.65071614583333  15.0732421875 4.6279296875  C 15.0504557291667 4.60514322916667  15.025390625 4.59375  14.998046875 4.59375  C 14.970703125 4.59375  14.9388020833333 4.61653645833333  14.90234375 4.662109375  C 14.8658854166667 4.70768229166667  14.8317057291667 4.75325520833333  14.7998046875 4.798828125  C 14.7679036458333 4.84440104166667  14.7473958333333 4.8671875  14.73828125 4.8671875  C 14.7109375 4.84895833333333  14.68359375 4.84212239583333  14.65625 4.8466796875  C 14.62890625 4.85123697916667  14.6083984375 4.85579427083333  14.5947265625 4.8603515625  C 14.5810546875 4.86490885416667  14.560546875 4.87858072916667  14.533203125 4.9013671875  C 14.505859375 4.92415364583333  14.4830729166667 4.94010416666667  14.46484375 4.94921875  C 14.4375 4.96744791666667  14.3987630208333 4.98111979166667  14.3486328125 4.990234375  C 14.2985026041667 4.99934895833333  14.259765625 5.00846354166667  14.232421875 5.017578125  C 14.369140625 4.97200520833333  14.3645833333333 4.921875  14.21875 4.8671875  C 14.1276041666667 4.83072916666667  14.0546875 4.81705729166667  14 4.826171875  C 14.08203125 4.78971354166667  14.1162109375 4.73502604166667  14.1025390625 4.662109375  C 14.0888671875 4.58919270833333  14.0501302083333 4.525390625  13.986328125 4.470703125  L 14.0546875 4.470703125  C 14.0455729166667 4.43424479166667  14.0068359375 4.3955078125  13.9384765625 4.3544921875  C 13.8701171875 4.3134765625  13.7903645833333 4.27473958333333  13.69921875 4.23828125  C 13.6080729166667 4.20182291666667  13.548828125 4.17447916666667  13.521484375 4.15625  C 13.4485677083333 4.11067708333333  13.2936197916667 4.0673828125  13.056640625 4.0263671875  C 12.8196614583333 3.9853515625  12.6692708333333 3.98307291666667  12.60546875 4.01953125  C 12.5598958333333 4.07421875  12.5393880208333 4.1220703125  12.5439453125 4.1630859375  C 12.5485026041667 4.2041015625  12.5667317708333 4.26790364583333  12.5986328125 4.3544921875  C 12.6305338541667 4.44108072916667  12.646484375 4.498046875  12.646484375 4.525390625  C 12.6555989583333 4.580078125  12.6305338541667 4.63932291666667  12.5712890625 4.703125  C 12.5120442708333 4.76692708333333  12.482421875 4.82161458333333  12.482421875 4.8671875  C 12.482421875 4.93098958333333  12.5462239583333 5.00162760416667  12.673828125 5.0791015625  C 12.8014322916667 5.15657552083333  12.8470052083333 5.25455729166667  12.810546875 5.373046875  C 12.783203125 5.44596354166667  12.7102864583333 5.51888020833333  12.591796875 5.591796875  C 12.4733072916667 5.66471354166667  12.400390625 5.71940104166667  12.373046875 5.755859375  C 12.3274739583333 5.82877604166667  12.3206380208333 5.9130859375  12.3525390625 6.0087890625  C 12.3844401041667 6.1044921875  12.4322916666667 6.1796875  12.49609375 6.234375  C 12.5143229166667 6.25260416666667  12.5211588541667 6.27083333333333  12.5166015625 6.2890625  C 12.5120442708333 6.30729166666667  12.49609375 6.32779947916667  12.46875 6.3505859375  C 12.44140625 6.37337239583333  12.4163411458333 6.3916015625  12.3935546875 6.4052734375  C 12.3707682291667 6.4189453125  12.3411458333333 6.43489583333333  12.3046875 6.453125  L 12.263671875 6.48046875  C 12.1634114583333 6.52604166666667  12.0699869791667 6.49869791666667  11.9833984375 6.3984375  C 11.8968098958333 6.29817708333333  11.8352864583333 6.1796875  11.798828125 6.04296875  C 11.7350260416667 5.81510416666667  11.662109375 5.67838541666667  11.580078125 5.6328125  C 11.3704427083333 5.55989583333333  11.23828125 5.564453125  11.18359375 5.646484375  C 11.1380208333333 5.52799479166667  10.951171875 5.40950520833333  10.623046875 5.291015625  C 10.3951822916667 5.208984375  10.130859375 5.19075520833333  9.830078125 5.236328125  C 9.884765625 5.22721354166667  9.884765625 5.15885416666667  9.830078125 5.03125  C 9.76627604166667 4.89453125  9.6796875 4.83984375  9.5703125 4.8671875  C 9.59765625 4.8125  9.61588541666667 4.73274739583333  9.625 4.6279296875  C 9.63411458333333 4.52311197916667  9.638671875 4.46158854166667  9.638671875 4.443359375  C 9.666015625 4.32486979166667  9.720703125 4.22005208333333  9.802734375 4.12890625  C 9.81184895833333 4.11979166666667  9.84375 4.0810546875  9.8984375 4.0126953125  C 9.953125 3.9443359375  9.99641927083333 3.8828125  10.0283203125 3.828125  C 10.0602213541667 3.7734375  10.0625 3.74609375  10.03515625 3.74609375  C 10.3541666666667 3.78255208333333  10.58203125 3.732421875  10.71875 3.595703125  C 10.7643229166667 3.55013020833333  10.8167317708333 3.47265625  10.8759765625 3.36328125  C 10.9352213541667 3.25390625  10.9830729166667 3.17643229166666  11.01953125 3.130859375  C 11.1015625 3.076171875  11.1653645833333 3.05110677083333  11.2109375 3.0556640625  C 11.2565104166667 3.06022135416667  11.3225911458333 3.08528645833333  11.4091796875 3.130859375  C 11.4957682291667 3.17643229166666  11.5618489583333 3.19921875  11.607421875 3.19921875  C 11.7350260416667 3.20833333333333  11.8056640625 3.158203125  11.8193359375 3.048828125  C 11.8330078125 2.939453125  11.798828125 2.84830729166666  11.716796875 2.775390625  C 11.826171875 2.78450520833333  11.83984375 2.70703125  11.7578125 2.54296875  C 11.7213541666667 2.47916666666666  11.6848958333333 2.43815104166666  11.6484375 2.419921875  C 11.5390625 2.38346354166667  11.416015625 2.40625  11.279296875 2.48828125  C 11.2063802083333 2.52473958333333  11.2154947916667 2.56119791666666  11.306640625 2.59765625  C 11.2975260416667 2.58854166666667  11.2542317708333 2.63639322916667  11.1767578125 2.7412109375  C 11.0992838541667 2.84602864583333  11.0240885416667 2.92578125  10.951171875 2.98046875  C 10.8782552083333 3.03515625  10.8053385416667 3.01236979166666  10.732421875 2.912109375  C 10.7233072916667 2.90299479166667  10.6982421875 2.84147135416667  10.6572265625 2.7275390625  C 10.6162109375 2.61360677083333  10.5729166666667 2.55208333333333  10.52734375 2.54296875  C 10.4544270833333 2.54296875  10.3815104166667 2.611328125  10.30859375 2.748046875  C 10.3359375 2.67513020833333  10.2858072916667 2.60677083333333  10.158203125 2.54296875  C 10.0305989583333 2.47916666666666  9.92122395833333 2.44270833333333  9.830078125 2.43359375  C 10.0032552083333 2.32421875  9.966796875 2.201171875  9.720703125 2.064453125  C 9.65690104166667 2.02799479166666  9.5634765625 2.00520833333333  9.4404296875 1.99609375  C 9.3173828125 1.98697916666666  9.228515625 2.00520833333333  9.173828125 2.05078125  C 9.12825520833333 2.11458333333333  9.10319010416667 2.1669921875  9.0986328125 2.2080078125  C 9.09407552083333 2.2490234375  9.11686197916667 2.28548177083333  9.1669921875 2.3173828125  C 9.21712239583333 2.34928385416667  9.26497395833333 2.37434895833333  9.310546875 2.392578125  C 9.35611979166667 2.41080729166667  9.40852864583333 2.42903645833333  9.4677734375 2.447265625  C 9.52701822916667 2.46549479166667  9.56575520833333 2.47916666666666  9.583984375 2.48828125  C 9.71158854166667 2.57942708333333  9.748046875 2.64322916666666  9.693359375 2.6796875  C 9.67513020833333 2.68880208333333  9.63639322916667 2.70475260416666  9.5771484375 2.7275390625  C 9.51790364583333 2.75032552083333  9.46549479166667 2.77083333333333  9.419921875 2.7890625  C 9.37434895833333 2.80729166666666  9.34700520833333 2.82552083333333  9.337890625 2.84375  C 9.310546875 2.88020833333333  9.310546875 2.94401041666667  9.337890625 3.03515625  C 9.365234375 3.12630208333333  9.35611979166667 3.19010416666667  9.310546875 3.2265625  C 9.26497395833333 3.18098958333333  9.22395833333333 3.10123697916667  9.1875 2.9873046875  C 9.15104166666667 2.87337239583333  9.119140625 2.79817708333333  9.091796875 2.76171875  C 9.15559895833333 2.84375  9.04166666666667 2.87109375  8.75 2.84375  L 8.61328125 2.830078125  C 8.57682291666667 2.830078125  8.50390625 2.83919270833333  8.39453125 2.857421875  C 8.28515625 2.87565104166667  8.19173177083333 2.88020833333333  8.1142578125 2.87109375  C 8.03678385416667 2.86197916666667  7.97526041666667 2.82552083333333  7.9296875 2.76171875  C 7.89322916666667 2.68880208333333  7.89322916666667 2.59765625  7.9296875 2.48828125  C 7.93880208333333 2.45182291666667  7.95703125 2.44270833333333  7.984375 2.4609375  C 7.94791666666667 2.43359375  7.89778645833333 2.39029947916667  7.833984375 2.3310546875  C 7.77018229166667 2.27180989583333  7.724609375 2.23307291666666  7.697265625 2.21484375  C 7.27799479166667 2.3515625  6.849609375 2.53841145833333  6.412109375 2.775390625  C 6.466796875 2.78450520833333  6.521484375 2.77994791666667  6.576171875 2.76171875  C 6.62174479166667 2.74348958333333  6.68098958333333 2.7138671875  6.75390625 2.6728515625  C 6.82682291666667 2.6318359375  6.87239583333333 2.60677083333333  6.890625 2.59765625  C 7.20052083333333 2.47005208333333  7.39192708333333 2.43815104166666  7.46484375 2.501953125  L 7.533203125 2.43359375  C 7.66080729166667 2.57942708333333  7.751953125 2.693359375  7.806640625 2.775390625  C 7.74283854166667 2.73893229166667  7.60611979166667 2.734375  7.396484375 2.76171875  C 7.21419270833333 2.81640625  7.11393229166667 2.87109375  7.095703125 2.92578125  C 7.15950520833333 3.03515625  7.18229166666667 3.1171875  7.1640625 3.171875  C 7.12760416666667 3.14453125  7.0751953125 3.09895833333333  7.0068359375 3.03515625  C 6.9384765625 2.97135416666666  6.87239583333333 2.92122395833333  6.80859375 2.884765625  C 6.74479166666667 2.84830729166666  6.67643229166667 2.82552083333333  6.603515625 2.81640625  C 6.45768229166667 2.81640625  6.357421875 2.82096354166667  6.302734375 2.830078125  C 4.97200520833333 3.55924479166667  3.90104166666667 4.57096354166667  3.08984375 5.865234375  C 3.15364583333333 5.92903645833333  3.20833333333333 5.96549479166667  3.25390625 5.974609375  C 3.29036458333333 5.98372395833333  3.31315104166667 6.02473958333333  3.322265625 6.09765625  C 3.33138020833333 6.17057291666667  3.3427734375 6.220703125  3.3564453125 6.248046875  C 3.3701171875 6.275390625  3.42252604166667 6.26171875  3.513671875 6.20703125  C 3.595703125 6.27994791666667  3.609375 6.36653645833333  3.5546875 6.466796875  C 3.56380208333333 6.45768229166667  3.76432291666667 6.58072916666667  4.15625 6.8359375  C 4.32942708333333 6.99088541666667  4.42513020833333 7.08658854166667  4.443359375 7.123046875  C 4.470703125 7.22330729166667  4.42513020833333 7.30533854166667  4.306640625 7.369140625  C 4.29752604166667 7.35091145833333  4.25651041666667 7.30989583333333  4.18359375 7.24609375  C 4.11067708333333 7.18229166666667  4.06966145833333 7.1640625  4.060546875 7.19140625  C 4.033203125 7.23697916666667  4.03548177083333 7.3212890625  4.0673828125 7.4443359375  C 4.09928385416667 7.5673828125  4.14713541666667 7.62434895833333  4.2109375 7.615234375  C 4.14713541666667 7.615234375  4.10384114583333 7.68815104166667  4.0810546875 7.833984375  C 4.05826822916667 7.97981770833333  4.046875 8.1416015625  4.046875 8.3193359375  C 4.046875 8.4970703125  4.04231770833333 8.60416666666667  4.033203125 8.640625  L 4.060546875 8.654296875  C 4.033203125 8.763671875  4.05826822916667 8.9208984375  4.1357421875 9.1259765625  C 4.21321614583333 9.3310546875  4.31119791666667 9.419921875  4.4296875 9.392578125  C 4.31119791666667 9.419921875  4.40234375 9.61588541666666  4.703125 9.98046875  C 4.7578125 10.0533854166667  4.79427083333333 10.0944010416667  4.8125 10.103515625  C 4.83984375 10.1217447916667  4.89453125 10.1559244791667  4.9765625 10.2060546875  C 5.05859375 10.2561848958333  5.126953125 10.3017578125  5.181640625 10.3427734375  C 5.236328125 10.3837890625  5.28190104166667 10.431640625  5.318359375 10.486328125  C 5.35481770833333 10.5319010416667  5.400390625 10.6344401041667  5.455078125 10.7939453125  C 5.509765625 10.9534505208333  5.57356770833333 11.060546875  5.646484375 11.115234375  C 5.62825520833333 11.169921875  5.67154947916667 11.2610677083333  5.7763671875 11.388671875  C 5.88118489583333 11.5162760416667  5.92903645833333 11.62109375  5.919921875 11.703125  C 5.91080729166667 11.703125  5.8994140625 11.7076822916667  5.8857421875 11.716796875  C 5.8720703125 11.7259114583333  5.86067708333333 11.73046875  5.8515625 11.73046875  C 5.87890625 11.7942708333333  5.94954427083333 11.8580729166667  6.0634765625 11.921875  C 6.17740885416667 11.9856770833333  6.248046875 12.044921875  6.275390625 12.099609375  C 6.28450520833333 12.126953125  6.29361979166667 12.1725260416667  6.302734375 12.236328125  C 6.31184895833333 12.3001302083333  6.32552083333333 12.3502604166667  6.34375 12.38671875  C 6.36197916666667 12.4231770833333  6.3984375 12.4322916666667  6.453125 12.4140625  C 6.47135416666667 12.2317708333333  6.36197916666667 11.94921875  6.125 11.56640625  C 5.98828125 11.3385416666667  5.91080729166667 11.2063802083333  5.892578125 11.169921875  C 5.865234375 11.1243489583333  5.84016927083333 11.0537109375  5.8173828125 10.9580078125  C 5.79459635416667 10.8623046875  5.77408854166667 10.7962239583333  5.755859375 10.759765625  C 5.77408854166667 10.759765625  5.80143229166667 10.7666015625  5.837890625 10.7802734375  C 5.87434895833333 10.7939453125  5.9130859375 10.8098958333333  5.9541015625 10.828125  C 5.9951171875 10.8463541666667  6.029296875 10.8645833333333  6.056640625 10.8828125  C 6.083984375 10.9010416666667  6.09309895833333 10.9147135416667  6.083984375 10.923828125  C 6.056640625 10.9876302083333  6.06575520833333 11.0673828125  6.111328125 11.1630859375  C 6.15690104166667 11.2587890625  6.21158854166667 11.3430989583333  6.275390625 11.416015625  C 6.33919270833333 11.4889322916667  6.41666666666667 11.5755208333333  6.5078125 11.67578125  C 6.59895833333333 11.7760416666667  6.65364583333333 11.8352864583333  6.671875 11.853515625  C 6.7265625 11.908203125  6.79036458333333 11.9970703125  6.86328125 12.1201171875  C 6.93619791666667 12.2431640625  6.93619791666667 12.3046875  6.86328125 12.3046875  C 6.9453125 12.3046875  7.03645833333333 12.3525390625  7.13671875 12.4482421875  C 7.23697916666667 12.5439453125  7.314453125 12.6328125  7.369140625 12.71484375  C 7.41471354166667 12.7877604166667  7.451171875 12.90625  7.478515625 13.0703125  C 7.505859375 13.234375  7.52864583333333 13.34375  7.546875 13.3984375  C 7.56510416666667 13.4622395833333  7.60384114583333 13.5237630208333  7.6630859375 13.5830078125  C 7.72233072916667 13.6422526041667  7.779296875 13.685546875  7.833984375 13.712890625  L 8.052734375 13.822265625  C 8.052734375 13.822265625  8.11197916666667 13.8541666666667  8.23046875 13.91796875  C 8.27604166666667 13.9361979166667  8.3603515625 13.9840494791667  8.4833984375 14.0615234375  C 8.6064453125 14.1389973958333  8.70442708333333 14.19140625  8.77734375 14.21875  C 8.86848958333333 14.2552083333333  8.94140625 14.2734375  8.99609375 14.2734375  C 9.05078125 14.2734375  9.11686197916667 14.2620442708333  9.1943359375 14.2392578125  C 9.27180989583333 14.2164713541667  9.33333333333333 14.2005208333333  9.37890625 14.19140625  C 9.515625 14.1731770833333  9.64778645833333 14.2415364583333  9.775390625 14.396484375  C 9.90299479166667 14.5514322916667  9.99869791666667 14.6471354166667  10.0625 14.68359375  C 10.390625 14.8567708333333  10.6412760416667 14.9069010416667  10.814453125 14.833984375  C 10.7962239583333 14.8430989583333  10.7985026041667 14.8772786458333  10.8212890625 14.9365234375  C 10.8440755208333 14.9957682291667  10.8805338541667 15.06640625  10.9306640625 15.1484375  C 10.9807942708333 15.23046875  11.0218098958333 15.2965494791667  11.0537109375 15.3466796875  C 11.0856119791667 15.3968098958333  11.1106770833333 15.435546875  11.12890625 15.462890625  C 11.1744791666667 15.517578125  11.2565104166667 15.5859375  11.375 15.66796875  C 11.4934895833333 15.75  11.5755208333333 15.818359375  11.62109375 15.873046875  C 11.67578125 15.8365885416667  11.7076822916667 15.7955729166667  11.716796875 15.75  C 11.689453125 15.8229166666667  11.7213541666667 15.9140625  11.8125 16.0234375  C 11.9036458333333 16.1328125  11.9856770833333 16.1783854166667  12.05859375 16.16015625  C 12.1861979166667 16.1328125  12.25 15.9869791666667  12.25 15.72265625  C 11.9674479166667 15.859375  11.744140625 15.77734375  11.580078125 15.4765625  C 11.580078125 15.4674479166667  11.5686848958333 15.4423828125  11.5458984375 15.4013671875  C 11.5231119791667 15.3603515625  11.5048828125 15.3216145833333  11.4912109375 15.28515625  C 11.4775390625 15.2486979166667  11.4661458333333 15.2099609375  11.45703125 15.1689453125  C 11.4479166666667 15.1279296875  11.4479166666667 15.09375  11.45703125 15.06640625  C 11.4661458333333 15.0390625  11.4889322916667 15.025390625  11.525390625 15.025390625  C 11.607421875 15.025390625  11.6529947916667 15.0094401041667  11.662109375 14.9775390625  C 11.6712239583333 14.9456380208333  11.662109375 14.888671875  11.634765625 14.806640625  C 11.607421875 14.724609375  11.5891927083333 14.6653645833333  11.580078125 14.62890625  C 11.5709635416667 14.5559895833333  11.5208333333333 14.46484375  11.4296875 14.35546875  C 11.3385416666667 14.24609375  11.2838541666667 14.177734375  11.265625 14.150390625  C 11.2200520833333 14.232421875  11.1471354166667 14.2688802083333  11.046875 14.259765625  C 10.9466145833333 14.2506510416667  10.8736979166667 14.2096354166667  10.828125 14.13671875  C 10.828125 14.1458333333333  10.8212890625 14.1708984375  10.8076171875 14.2119140625  C 10.7939453125 14.2529296875  10.787109375 14.2825520833333  10.787109375 14.30078125  C 10.6686197916667 14.30078125  10.6002604166667 14.2962239583333  10.58203125 14.287109375  C 10.5911458333333 14.259765625  10.6025390625 14.1800130208333  10.6162109375 14.0478515625  C 10.6298828125 13.9156901041667  10.6458333333333 13.8131510416667  10.6640625 13.740234375  C 10.6731770833333 13.7037760416667  10.6982421875 13.6490885416667  10.7392578125 13.576171875  C 10.7802734375 13.5032552083333  10.814453125 13.4371744791667  10.841796875 13.3779296875  C 10.869140625 13.3186848958333  10.8873697916667 13.26171875  10.896484375 13.20703125  C 10.9055989583333 13.15234375  10.8850911458333 13.1090494791667  10.8349609375 13.0771484375  C 10.7848307291667 13.0452473958333  10.705078125 13.0338541666667  10.595703125 13.04296875  C 10.4225260416667 13.0520833333333  10.3040364583333 13.1432291666667  10.240234375 13.31640625  C 10.2311197916667 13.34375  10.2174479166667 13.3916015625  10.19921875 13.4599609375  C 10.1809895833333 13.5283203125  10.158203125 13.5807291666667  10.130859375 13.6171875  C 10.103515625 13.6536458333333  10.0625 13.685546875  10.0078125 13.712890625  C 9.94401041666667 13.740234375  9.83463541666667 13.7493489583333  9.6796875 13.740234375  C 9.52473958333333 13.7311197916667  9.41536458333333 13.7083333333333  9.3515625 13.671875  C 9.23307291666667 13.5989583333333  9.13053385416667 13.466796875  9.0439453125 13.275390625  C 8.95735677083333 13.083984375  8.9140625 12.9153645833333  8.9140625 12.76953125  C 8.9140625 12.6783854166667  8.92545572916667 12.5576171875  8.9482421875 12.4072265625  C 8.97102864583333 12.2568359375  8.98470052083333 12.1429036458333  8.9892578125 12.0654296875  C 8.99381510416667 11.9879557291667  8.96875 11.8763020833333  8.9140625 11.73046875  C 8.94140625 11.7122395833333  8.982421875 11.6689453125  9.037109375 11.6005859375  C 9.091796875 11.5322265625  9.13736979166667 11.484375  9.173828125 11.45703125  C 9.19205729166667 11.4479166666667  9.21256510416667 11.4410807291667  9.2353515625 11.4365234375  C 9.25813802083333 11.4319661458333  9.27864583333333 11.4319661458333  9.296875 11.4365234375  C 9.31510416666667 11.4410807291667  9.33333333333333 11.4342447916667  9.3515625 11.416015625  C 9.36979166666667 11.3977864583333  9.38346354166667 11.3704427083333  9.392578125 11.333984375  C 9.38346354166667 11.3248697916667  9.365234375 11.3111979166667  9.337890625 11.29296875  C 9.310546875 11.265625  9.29231770833333 11.251953125  9.283203125 11.251953125  C 9.34700520833333 11.279296875  9.47688802083333 11.2724609375  9.6728515625 11.2314453125  C 9.86881510416667 11.1904296875  9.994140625 11.197265625  10.048828125 11.251953125  C 10.185546875 11.3522135416667  10.2858072916667 11.3430989583333  10.349609375 11.224609375  C 10.349609375 11.2154947916667  10.3382161458333 11.1722005208333  10.3154296875 11.0947265625  C 10.2926432291667 11.0172526041667  10.2903645833333 10.9557291666667  10.30859375 10.91015625  C 10.3541666666667 11.15625  10.486328125 11.197265625  10.705078125 11.033203125  C 10.732421875 11.060546875  10.8030598958333 11.0833333333333  10.9169921875 11.1015625  C 11.0309244791667 11.1197916666667  11.1106770833333 11.142578125  11.15625 11.169921875  C 11.18359375 11.1881510416667  11.2154947916667 11.2132161458333  11.251953125 11.2451171875  C 11.2884114583333 11.2770182291667  11.3134765625 11.2975260416667  11.3271484375 11.306640625  C 11.3408203125 11.3157552083333  11.3636067708333 11.3134765625  11.3955078125 11.2998046875  C 11.4274088541667 11.2861328125  11.4661458333333 11.2565104166667  11.51171875 11.2109375  C 11.6028645833333 11.3385416666667  11.6575520833333 11.4479166666667  11.67578125 11.5390625  C 11.7760416666667 11.9036458333333  11.8626302083333 12.1041666666667  11.935546875 12.140625  C 11.9993489583333 12.16796875  12.0494791666667 12.1770833333333  12.0859375 12.16796875  C 12.1223958333333 12.1588541666667  12.1429036458333 12.1155598958333  12.1474609375 12.0380859375  C 12.1520182291667 11.9606119791667  12.1520182291667 11.8968098958333  12.1474609375 11.8466796875  C 12.1429036458333 11.7965494791667  12.1360677083333 11.7395833333333  12.126953125 11.67578125  L 12.11328125 11.56640625  L 12.11328125 11.3203125  L 12.099609375 11.2109375  C 11.962890625 11.18359375  11.8785807291667 11.12890625  11.8466796875 11.046875  C 11.8147786458333 10.96484375  11.8216145833333 10.8805338541667  11.8671875 10.7939453125  C 11.9127604166667 10.7073567708333  11.9811197916667 10.623046875  12.072265625 10.541015625  C 12.0813802083333 10.5319010416667  12.1178385416667 10.5159505208333  12.181640625 10.4931640625  C 12.2454427083333 10.4703776041667  12.3160807291667 10.4407552083333  12.3935546875 10.404296875  C 12.4710286458333 10.3678385416667  12.5279947916667 10.3313802083333  12.564453125 10.294921875  C 12.755859375 10.1217447916667  12.82421875 9.96223958333333  12.76953125 9.81640625  C 12.8333333333333 9.81640625  12.8834635416667 9.775390625  12.919921875 9.693359375  C 12.9108072916667 9.693359375  12.8880208333333 9.6796875  12.8515625 9.65234375  C 12.8151041666667 9.625  12.7809244791667 9.60221354166667  12.7490234375 9.583984375  C 12.7171223958333 9.56575520833333  12.6966145833333 9.556640625  12.6875 9.556640625  C 12.76953125 9.51106770833333  12.7786458333333 9.43815104166667  12.71484375 9.337890625  C 12.7604166666667 9.310546875  12.7945963541667 9.26041666666667  12.8173828125 9.1875  C 12.8401692708333 9.11458333333333  12.8743489583333 9.06901041666667  12.919921875 9.05078125  C 13.001953125 9.16015625  13.09765625 9.16927083333333  13.20703125 9.078125  C 13.2799479166667 9.00520833333333  13.2845052083333 8.93229166666667  13.220703125 8.859375  C 13.2662760416667 8.79557291666666  13.3597005208333 8.74772135416667  13.5009765625 8.7158203125  C 13.6422526041667 8.68391927083333  13.7265625 8.640625  13.75390625 8.5859375  C 13.8177083333333 8.60416666666667  13.8541666666667 8.59505208333333  13.86328125 8.55859375  C 13.8723958333333 8.52213541666667  13.876953125 8.46744791666666  13.876953125 8.39453125  C 13.876953125 8.32161458333333  13.890625 8.26692708333333  13.91796875 8.23046875  C 13.9544270833333 8.18489583333333  14.0227864583333 8.14388020833333  14.123046875 8.107421875  C 14.2233072916667 8.07096354166667  14.2825520833333 8.04817708333333  14.30078125 8.0390625  L 14.533203125 7.888671875  C 14.560546875 7.85221354166667  14.560546875 7.833984375  14.533203125 7.833984375  C 14.697265625 7.85221354166667  14.8385416666667 7.80208333333333  14.95703125 7.68359375  C 15.0481770833333 7.58333333333333  15.0208333333333 7.4921875  14.875 7.41015625  C 14.90234375 7.35546875  14.888671875 7.31217447916667  14.833984375 7.2802734375  C 14.779296875 7.24837239583333  14.7109375 7.22330729166667  14.62890625 7.205078125  C 14.65625 7.19596354166667  14.7086588541667 7.19368489583333  14.7861328125 7.1982421875  C 14.8636067708333 7.20279947916667  14.9114583333333 7.19596354166667  14.9296875 7.177734375  C 15.06640625 7.08658854166667  15.0345052083333 7.013671875  14.833984375 6.958984375  Z M 11.990234375 18.89453125  C 11.990234375 18.94921875  11.9993489583333 19.0221354166667  12.017578125 19.11328125  C 13.8951822916667 18.78515625  15.4947916666667 17.923828125  16.81640625 16.529296875  C 16.7890625 16.501953125  16.7320963541667 16.4814453125  16.6455078125 16.4677734375  C 16.5589192708333 16.4541015625  16.501953125 16.4381510416667  16.474609375 16.419921875  C 16.310546875 16.3561197916667  16.201171875 16.3196614583333  16.146484375 16.310546875  C 16.1555989583333 16.2467447916667  16.1442057291667 16.1875  16.1123046875 16.1328125  C 16.0804036458333 16.078125  16.0439453125 16.037109375  16.0029296875 16.009765625  C 15.9619140625 15.982421875  15.9049479166667 15.9459635416667  15.83203125 15.900390625  C 15.7591145833333 15.8548177083333  15.708984375 15.8229166666667  15.681640625 15.8046875  C 15.6634114583333 15.7864583333333  15.6315104166667 15.7591145833333  15.5859375 15.72265625  C 15.5403645833333 15.6861979166667  15.5084635416667 15.6611328125  15.490234375 15.6474609375  C 15.4720052083333 15.6337890625  15.4378255208333 15.61328125  15.3876953125 15.5859375  C 15.3375651041667 15.55859375  15.298828125 15.5494791666667  15.271484375 15.55859375  C 15.244140625 15.5677083333333  15.1985677083333 15.572265625  15.134765625 15.572265625  L 15.09375 15.5859375  C 15.06640625 15.5950520833333  15.0413411458333 15.6064453125  15.0185546875 15.6201171875  C 14.9957682291667 15.6337890625  14.970703125 15.6474609375  14.943359375 15.6611328125  C 14.916015625 15.6748046875  14.8977864583333 15.6884765625  14.888671875 15.7021484375  C 14.8795572916667 15.7158203125  14.8795572916667 15.7272135416667  14.888671875 15.736328125  C 14.697265625 15.5813802083333  14.533203125 15.4811197916667  14.396484375 15.435546875  C 14.3509114583333 15.4264322916667  14.30078125 15.4013671875  14.24609375 15.3603515625  C 14.19140625 15.3193359375  14.1435546875 15.2874348958333  14.1025390625 15.2646484375  C 14.0615234375 15.2418619791667  14.0159505208333 15.2350260416667  13.9658203125 15.244140625  C 13.9156901041667 15.2532552083333  13.86328125 15.28515625  13.80859375 15.33984375  C 13.7630208333333 15.3854166666667  13.7356770833333 15.4537760416667  13.7265625 15.544921875  C 13.7174479166667 15.6360677083333  13.7083333333333 15.6953125  13.69921875 15.72265625  C 13.6354166666667 15.6770833333333  13.6354166666667 15.5973307291667  13.69921875 15.4833984375  C 13.7630208333333 15.3694661458333  13.7721354166667 15.28515625  13.7265625 15.23046875  C 13.69921875 15.17578125  13.6513671875 15.1552734375  13.5830078125 15.1689453125  C 13.5146484375 15.1826171875  13.4599609375 15.203125  13.4189453125 15.23046875  C 13.3779296875 15.2578125  13.3255208333333 15.2965494791667  13.26171875 15.3466796875  C 13.1979166666667 15.3968098958333  13.1569010416667 15.4264322916667  13.138671875 15.435546875  C 13.1204427083333 15.4446614583333  13.0817057291667 15.4697265625  13.0224609375 15.5107421875  C 12.9632161458333 15.5517578125  12.9244791666667 15.5859375  12.90625 15.61328125  C 12.87890625 15.6497395833333  12.8515625 15.7044270833333  12.82421875 15.77734375  C 12.796875 15.8502604166667  12.7740885416667 15.900390625  12.755859375 15.927734375  C 12.7376302083333 15.8912760416667  12.6852213541667 15.8616536458333  12.5986328125 15.8388671875  C 12.5120442708333 15.8160807291667  12.46875 15.791015625  12.46875 15.763671875  C 12.4869791666667 15.8548177083333  12.5052083333333 16.0143229166667  12.5234375 16.2421875  C 12.5416666666667 16.4700520833333  12.564453125 16.6432291666667  12.591796875 16.76171875  C 12.6555989583333 17.0442708333333  12.6009114583333 17.2630208333333  12.427734375 17.41796875  C 12.181640625 17.6458333333333  12.0494791666667 17.828125  12.03125 17.96484375  C 11.9947916666667 18.1653645833333  12.0494791666667 18.2838541666667  12.1953125 18.3203125  C 12.1953125 18.3841145833333  12.1588541666667 18.4775390625  12.0859375 18.6005859375  C 12.0130208333333 18.7236328125  11.9811197916667 18.8216145833333  11.990234375 18.89453125  Z " fill-rule="nonzero" fill="#aaaaaa" stroke="none" transform="matrix(1 0 0 1 16 9 )" />
  </g>
</svg>