<?xml version="1.0" encoding="utf-8"?>
<svg version="1.1" xmlns:xlink="http://www.w3.org/1999/xlink" width="15px" height="24px" xmlns="http://www.w3.org/2000/svg">
  <g transform="matrix(1 0 0 1 -7 -26 )">
    <path d="M 8.88198757763975 21.4509018036072  C 8.98550724637681 21.6112224448898  9.03726708074534 21.7955911823647  9.03726708074534 22.0040080160321  C 9.03726708074534 22.2124248496994  8.98550724637681 22.3967935871743  8.88198757763975 22.5571142284569  L 8.1055900621118 23.7595190380762  C 8.00207039337474 23.9198396793587  7.88302277432712 24  7.74844720496894 24  C 7.61387163561077 24  7.49482401656315 23.9198396793587  7.39130434782609 23.7595190380762  L 0.15527950310559 12.5531062124248  C 0.0517598343685301 12.3927855711423  0 12.2084168336673  0 12  C 0 11.7915831663327  0.0517598343685301 11.6072144288577  0.15527950310559 11.4468937875752  L 7.39130434782609 0.240480961923848  C 7.49482401656315 0.0801603206412818  7.61387163561077 0  7.74844720496894 0  C 7.88302277432712 0  8.00207039337474 0.0801603206412818  8.1055900621118 0.240480961923848  L 8.88198757763975 1.44288577154308  C 8.98550724637681 1.60320641282565  9.03726708074534 1.7875751503006  9.03726708074534 1.99599198396794  C 9.03726708074534 2.20440881763527  8.98550724637681 2.38877755511022  8.88198757763975 2.54909819639279  L 2.77950310559006 12  L 8.88198757763975 21.4509018036072  Z M 14.8447204968944 21.4509018036072  C 14.9482401656315 21.6112224448898  15 21.7955911823647  15 22.0040080160321  C 15 22.2124248496994  14.9482401656315 22.3967935871743  14.8447204968944 22.5571142284569  L 14.0683229813665 23.7595190380762  C 13.9648033126294 23.9198396793587  13.8457556935818 24  13.7111801242236 24  C 13.5766045548654 24  13.4575569358178 23.9198396793587  13.3540372670807 23.7595190380762  L 6.11801242236025 12.5531062124248  C 6.01449275362319 12.3927855711423  5.96273291925466 12.2084168336673  5.96273291925466 12  C 5.96273291925466 11.7915831663327  6.01449275362319 11.6072144288577  6.11801242236025 11.4468937875752  L 13.3540372670807 0.240480961923848  C 13.4575569358178 0.0801603206412818  13.5766045548654 0  13.7111801242236 0  C 13.8457556935818 0  13.9648033126294 0.0801603206412818  14.0683229813665 0.240480961923848  L 14.8447204968944 1.44288577154308  C 14.9482401656315 1.60320641282565  15 1.7875751503006  15 1.99599198396794  C 15 2.20440881763527  14.9482401656315 2.38877755511022  14.8447204968944 2.54909819639279  L 8.74223602484472 12  L 14.8447204968944 21.4509018036072  Z " fill-rule="nonzero" fill="#7f7f7f" stroke="none" transform="matrix(1 0 0 1 7 26 )" />
  </g>
</svg>