<?xml version="1.0" encoding="utf-8"?>
<svg version="1.1" xmlns:xlink="http://www.w3.org/1999/xlink" width="15px" height="24px" xmlns="http://www.w3.org/2000/svg">
  <g transform="matrix(1 0 0 1 -7 -26 )">
    <path d="M 6.11801242236025 21.4509018036072  C 6.01449275362319 21.6112224448898  5.96273291925466 21.7955911823647  5.96273291925466 22.0040080160321  C 5.96273291925466 22.2124248496994  6.01449275362319 22.3967935871743  6.11801242236025 22.5571142284569  L 6.8944099378882 23.7595190380762  C 6.99792960662526 23.9198396793587  7.11697722567288 24  7.25155279503106 24  C 7.38612836438923 24  7.50517598343685 23.9198396793587  7.60869565217391 23.7595190380762  L 14.8447204968944 12.5531062124248  C 14.9482401656315 12.3927855711423  15 12.2084168336673  15 12  C 15 11.7915831663327  14.9482401656315 11.6072144288577  14.8447204968944 11.4468937875752  L 7.60869565217391 0.240480961923848  C 7.50517598343685 0.0801603206412818  7.38612836438923 0  7.25155279503106 0  C 7.11697722567288 0  6.99792960662526 0.0801603206412818  6.8944099378882 0.240480961923848  L 6.11801242236025 1.44288577154308  C 6.01449275362319 1.60320641282565  5.96273291925466 1.7875751503006  5.96273291925466 1.99599198396794  C 5.96273291925466 2.20440881763527  6.01449275362319 2.38877755511022  6.11801242236025 2.54909819639279  L 12.2204968944099 12  L 6.11801242236025 21.4509018036072  Z M 0.15527950310559 21.4509018036072  C 0.0517598343685288 21.6112224448898  0 21.7955911823647  0 22.0040080160321  C 0 22.2124248496994  0.0517598343685288 22.3967935871743  0.15527950310559 22.5571142284569  L 0.93167701863354 23.7595190380762  C 1.0351966873706 23.9198396793587  1.15424430641822 24  1.2888198757764 24  C 1.42339544513457 24  1.54244306418219 23.9198396793587  1.64596273291925 23.7595190380762  L 8.88198757763975 12.5531062124248  C 8.98550724637681 12.3927855711423  9.03726708074534 12.2084168336673  9.03726708074534 12  C 9.03726708074534 11.7915831663327  8.98550724637681 11.6072144288577  8.88198757763975 11.4468937875752  L 1.64596273291925 0.240480961923848  C 1.54244306418219 0.0801603206412818  1.42339544513457 0  1.2888198757764 0  C 1.15424430641822 0  1.0351966873706 0.0801603206412818  0.93167701863354 0.240480961923848  L 0.15527950310559 1.44288577154308  C 0.0517598343685288 1.60320641282565  0 1.7875751503006  0 1.99599198396794  C 0 2.20440881763527  0.0517598343685288 2.38877755511022  0.15527950310559 2.54909819639279  L 6.25776397515528 12  L 0.15527950310559 21.4509018036072  Z " fill-rule="nonzero" fill="#7f7f7f" stroke="none" transform="matrix(1 0 0 1 7 26 )" />
  </g>
</svg>