<?xml version="1.0" encoding="utf-8"?>
<svg version="1.1" xmlns:xlink="http://www.w3.org/1999/xlink" width="17px" height="21px" xmlns="http://www.w3.org/2000/svg">
  <g transform="matrix(1 0 0 1 -10 -10 )">
    <path d="M 4.72222222222222 10.5  L 15.5833333333333 10.5  C 15.9768518518519 10.5  16.3113425925926 10.6276041666667  16.5868055555556 10.8828125  C 16.8622685185185 11.1380208333333  17 11.4479166666667  17 11.8125  L 17 19.6875  C 17 20.0520833333333  16.8622685185185 20.3619791666667  16.5868055555556 20.6171875  C 16.3113425925926 20.8723958333333  15.9768518518519 21  15.5833333333333 21  L 1.41666666666667 21  C 1.02314814814815 21  0.688657407407408 20.8723958333333  0.413194444444444 20.6171875  C 0.137731481481481 20.3619791666667  0 20.0520833333333  0 19.6875  L 0 11.8125  C 0 11.4479166666667  0.137731481481481 11.1380208333333  0.413194444444444 10.8828125  C 0.688657407407408 10.6276041666667  1.02314814814815 10.5  1.41666666666667 10.5  L 1.88888888888889 10.5  L 1.88888888888889 6.125  C 1.88888888888889 4.43880208333333  2.5357349537037 2.99641927083333  3.82942708333333 1.7978515625  C 5.12311921296296 0.599283854166668  6.67997685185185 0  8.5 0  C 10.3200231481481 0  11.876880787037 0.599283854166668  13.1705729166667 1.7978515625  C 14.4642650462963 2.99641927083333  15.1111111111111 4.43880208333333  15.1111111111111 6.125  C 15.1111111111111 6.36197916666667  15.017650462963 6.56705729166667  14.8307291666667 6.740234375  C 14.6438078703704 6.91341145833333  14.4224537037037 7  14.1666666666667 7  L 13.2222222222222 7  C 12.9664351851852 7  12.7450810185185 6.91341145833333  12.5581597222222 6.740234375  C 12.3712384259259 6.56705729166667  12.2777777777778 6.36197916666667  12.2777777777778 6.125  C 12.2777777777778 5.15885416666667  11.9088541666667 4.333984375  11.1710069444444 3.650390625  C 10.4331597222222 2.966796875  9.54282407407408 2.625  8.5 2.625  C 7.45717592592593 2.625  6.56684027777778 2.966796875  5.82899305555556 3.650390625  C 5.09114583333333 4.333984375  4.72222222222222 5.15885416666667  4.72222222222222 6.125  L 4.72222222222222 10.5  Z " fill-rule="nonzero" fill="#ffffff" stroke="none" transform="matrix(1 0 0 1 10 10 )" />
  </g>
</svg>