<?xml version="1.0" encoding="utf-8"?>
<svg version="1.1" xmlns:xlink="http://www.w3.org/1999/xlink" width="21px" height="21px" xmlns="http://www.w3.org/2000/svg">
  <g transform="matrix(1 0 0 1 -8 -11 )">
    <path d="M 11.3076923076923 9.45252403846154  L 11.3076923076923 18.9429086538462  L 19.3846153846154 14.5384615384615  L 19.3846153846154 6.51201923076923  L 11.3076923076923 9.45252403846154  Z M 1.69110576923077 4.82091346153846  L 10.5 8.02644230769231  L 19.3088942307692 4.82091346153846  L 10.5 1.61538461538461  L 1.69110576923077 4.82091346153846  Z M 20.7097355769231 3.92487980769231  C 20.9032451923077 4.20252403846154  21 4.50961538461538  21 4.84615384615384  L 21 14.5384615384615  C 21 14.8329326923077  20.9242788461538 15.1063701923077  20.7728365384615 15.3587740384615  C 20.6213942307692 15.6111778846154  20.4152644230769 15.8088942307692  20.1544471153846 15.9519230769231  L 11.2698317307692 20.7980769230769  C 11.0342548076923 20.9326923076923  10.7776442307692 21  10.5 21  C 10.2223557692308 21  9.96574519230769 20.9326923076923  9.73016826923077 20.7980769230769  L 0.845552884615385 15.9519230769231  C 0.584735576923077 15.8088942307692  0.378605769230769 15.6111778846154  0.227163461538462 15.3587740384615  C 0.0757211538461539 15.1063701923077  0 14.8329326923077  0 14.5384615384615  L 0 4.84615384615384  C 0 4.50961538461538  0.0967548076923077 4.20252403846154  0.290264423076923 3.92487980769231  C 0.483774038461538 3.64723557692308  0.740384615384615 3.44951923076923  1.06009615384615 3.33173076923077  L 9.94471153846154 0.100961538461538  C 10.1298076923077 0.0336538461538437  10.3149038461538 0  10.5 0  C 10.6850961538462 0  10.8701923076923 0.0336538461538437  11.0552884615385 0.100961538461538  L 19.9399038461538 3.33173076923077  C 20.2596153846154 3.44951923076923  20.5162259615385 3.64723557692308  20.7097355769231 3.92487980769231  Z " fill-rule="nonzero" fill="#ffffff" stroke="none" transform="matrix(1 0 0 1 8 11 )" />
  </g>
</svg>