<?xml version="1.0" encoding="utf-8"?>
<svg version="1.1" xmlns:xlink="http://www.w3.org/1999/xlink" width="21px" height="21px" xmlns="http://www.w3.org/2000/svg">
  <g transform="matrix(1 0 0 1 -16 -9 )">
    <path d="M 5.82421875 0.046875000000001  C 5.87890625 0.0156250000000011  5.9375 0  6 0  C 6.1015625 0  6.189453125 0.0371093750000009  6.263671875 0.111328125  C 6.337890625 0.185546875  6.375 0.273437499999998  6.375 0.375000000000001  L 6.375 17.625  C 6.375 17.78125  6.30859375 17.890625  6.17578125 17.953125  L 0.55078125 20.953125  C 0.49609375 20.984375  0.4375 21  0.375 21  C 0.2734375 21  0.185546875 20.962890625  0.111328125 20.888671875  C 0.037109375 20.814453125  0 20.7265625  0 20.625  L 0 3.375  C 0 3.21875  0.06640625 3.109375  0.19921875 3.046875  L 5.82421875 0.046875000000001  Z M 20.44921875 0.046875000000001  C 20.50390625 0.0156250000000011  20.5625 0  20.625 0  C 20.7265625 0  20.814453125 0.0371093750000009  20.888671875 0.111328125  C 20.962890625 0.185546875  21 0.273437499999998  21 0.375000000000001  L 21 17.625  C 21 17.78125  20.93359375 17.890625  20.80078125 17.953125  L 15.17578125 20.953125  C 15.12109375 20.984375  15.0625 21  15 21  C 14.8984375 21  14.810546875 20.962890625  14.736328125 20.888671875  C 14.662109375 20.814453125  14.625 20.7265625  14.625 20.625  L 14.625 3.375  C 14.625 3.21875  14.69140625 3.109375  14.82421875 3.046875  L 20.44921875 0.046875000000001  Z M 7.236328125 0.111328125  C 7.310546875 0.0371093750000009  7.3984375 0  7.5 0  C 7.5625 0  7.6171875 0.0117187499999997  7.6640625 0.035156249999999  L 13.6640625 3.03515625  C 13.8046875 3.11328125  13.875 3.2265625  13.875 3.375  L 13.875 20.625  C 13.875 20.7265625  13.837890625 20.814453125  13.763671875 20.888671875  C 13.689453125 20.962890625  13.6015625 21  13.5 21  C 13.4375 21  13.3828125 20.98828125  13.3359375 20.96484375  L 7.3359375 17.96484375  C 7.1953125 17.88671875  7.125 17.7734375  7.125 17.625  L 7.125 0.375000000000001  C 7.125 0.273437499999998  7.162109375 0.185546875  7.236328125 0.111328125  Z " fill-rule="nonzero" fill="#409eff" stroke="none" transform="matrix(1 0 0 1 16 9 )" />
  </g>
</svg>