<?xml version="1.0" encoding="utf-8"?>
<svg version="1.1" xmlns:xlink="http://www.w3.org/1999/xlink" width="22px" height="19px" xmlns="http://www.w3.org/2000/svg">
  <g transform="matrix(1 0 0 1 -15 -10 )">
    <path d="M 21.0546875 0.0635451505016722  C 21.2838541666667 -0.0282422891118548  21.4986979166667 -0.00706057227796264  21.69921875 0.127090301003344  C 21.8997395833333 0.268301746562616  22 0.455406911928651  22 0.68840579710145  L 22 15.6003344481605  C 22 15.7415458937198  21.9606119791667 15.8686361947232  21.8818359375 15.9816053511706  C 21.8030598958333 16.094574507618  21.69921875 16.1757710888146  21.5703125 16.2251950947603  L 14.6953125 18.9364548494983  C 14.5234375 19.0141211445559  14.3515625 19.0141211445559  14.1796875 18.9364548494983  L 7.5625 16.3311036789298  L 0.9453125 18.9364548494983  C 0.873697916666667 18.9717577108881  0.787760416666667 18.9894091415831  0.6875 18.9894091415831  C 0.551432291666667 18.9894091415831  0.422526041666667 18.9505759940543  0.30078125 18.8729096989967  C 0.100260416666667 18.7316982534374  0 18.5445930880713  0 18.3115942028986  L 0 3.39966555183946  C 0 3.25845410628019  0.0393880208333333 3.13136380527685  0.1181640625 3.01839464882943  C 0.196940104166667 2.90542549238201  0.30078125 2.82422891118543  0.4296875 2.77480490523969  L 7.3046875 0.0635451505016722  C 7.4765625 -0.0141211445559295  7.6484375 -0.0141211445559295  7.8203125 0.0635451505016722  L 14.4375 2.66889632107023  L 21.0546875 0.0635451505016722  Z M 14 3.99275362318841  L 8 1.55685618729097  L 8 15.0072463768116  L 14 17.443143812709  L 14 3.99275362318841  Z M 7.21875 1.55685618729097  L 1.375 3.85507246376812  L 1.375 17.3054626532887  L 7.21875 15.0072463768116  L 7.21875 1.55685618729097  Z M 14.78125 17.443143812709  L 20.625 15.1449275362319  L 20.625 1.69453734671126  L 14.78125 3.99275362318841  L 14.78125 17.443143812709  Z " fill-rule="nonzero" fill="#409eff" stroke="none" transform="matrix(1 0 0 1 15 10 )" />
  </g>
</svg>