<?xml version="1.0" encoding="utf-8"?>
<svg version="1.1" xmlns:xlink="http://www.w3.org/1999/xlink" width="22px" height="18px" xmlns="http://www.w3.org/2000/svg">
  <g transform="matrix(1 0 0 1 -15 -11 )">
    <path d="M 18.8376703841388 10.2837100545596  C 18.8467575382074 10.3024162120031  18.8513011152416 10.3304754481684  18.8513011152416 10.3678877630553  L 18.8513011152416 17.1021044427124  C 18.8513011152416 17.3452844894778  18.7649731515903 17.5557287607171  18.5923172242875 17.7334372564302  C 18.4196612969847 17.9111457521434  18.215200330442 18  17.9789343246592 18  L 12.7447335811648 18  L 12.7447335811648 12.6126266562744  L 9.25526641883519 12.6126266562744  L 9.25526641883519 18  L 4.02106567534077 18  C 3.78479966955803 18  3.58033870301528 17.9111457521434  3.40768277571252 17.7334372564302  C 3.23502684840975 17.5557287607171  3.14869888475836 17.3452844894778  3.14869888475836 17.1021044427124  L 3.14869888475836 10.3678877630553  C 3.14869888475836 10.3585346843336  3.15097067327551 10.344505066251  3.15551425030979 10.3257989088075  C 3.16005782734407 10.307092751364  3.16232961586121 10.2930631332814  3.16232961586121 10.2837100545596  L 11 3.63367108339829  L 18.8376703841388 10.2837100545596  Z M 21.9863692688972 9.0701480904131  C 21.9954564229657 9.19641465315666  21.9636513837257 9.30631332813718  21.8909541511772 9.39984411535464  L 21.0458488228005 10.4380358534684  C 20.973151590252 10.5222135619641  20.877736472532 10.5736554949337  20.7596034696406 10.5923616523772  L 20.7187112763321 10.5923616523772  C 20.6005782734407 10.5923616523772  20.5051631557208 10.5596258768511  20.4324659231722 10.4941543257989  L 11 2.39906469212783  L 1.56753407682776 10.4941543257989  C 1.45848822800496 10.5689789555729  1.34944237918216 10.601714731099  1.24039653035936 10.5923616523772  C 1.12226352746799 10.5736554949337  1.02684840974804 10.5222135619641  0.954151177199504 10.4380358534684  L 0.1090458488228 9.39984411535464  C 0.0363486162742668 9.30631332813718  0.00454357703428339 9.19641465315666  0.0136307311028501 9.0701480904131  C 0.0227178851714168 8.94388152766953  0.0726972325485337 8.84333593141076  0.163568773234201 8.76851130163679  L 9.9640644361834 0.364770070148091  C 10.2548533663775 0.121590023382695  10.6001652209831 0  11 0  C 11.3998347790169 0  11.7451466336225 0.121590023382695  12.0359355638166 0.364770070148091  L 15.361833952912 3.22681215900234  L 15.361833952912 0.491036632891659  C 15.361833952912 0.360093530787216  15.4027261462206 0.252533125487139  15.4845105328377 0.168355416991427  C 15.5662949194548 0.0841777084957136  15.6707971912433 0.0420888542478568  15.7980173482032 0.0420888542478568  L 18.4151177199504 0.0420888542478568  C 18.5423378769104 0.0420888542478568  18.6468401486989 0.0841777084957136  18.728624535316 0.168355416991427  C 18.8104089219331 0.252533125487139  18.8513011152416 0.360093530787216  18.8513011152416 0.491036632891659  L 18.8513011152416 6.21512081060016  L 21.8364312267658 8.76851130163679  C 21.9273027674515 8.84333593141076  21.9772821148286 8.94388152766953  21.9863692688972 9.0701480904131  Z " fill-rule="nonzero" fill="#aaaaaa" stroke="none" transform="matrix(1 0 0 1 15 11 )" />
  </g>
</svg>