<?xml version="1.0" encoding="utf-8"?>
<svg version="1.1" xmlns:xlink="http://www.w3.org/1999/xlink" width="22px" height="6px" xmlns="http://www.w3.org/2000/svg">
  <g transform="matrix(1 0 0 1 -15 -17 )">
    <path d="M 21.4229910714286 0.55078125  C 21.8076636904762 0.917968749999999  22 1.359375  22 1.875  L 22 4.125  C 22 4.640625  21.8076636904762 5.08203125  21.4229910714286 5.44921875  C 21.038318452381 5.81640625  20.5758928571429 6  20.0357142857143 6  L 1.96428571428571 6  C 1.42410714285714 6  0.961681547619048 5.81640625  0.577008928571429 5.44921875  C 0.19233630952381 5.08203125  0 4.640625  0 4.125  L 0 1.875  C 0 1.359375  0.19233630952381 0.917968749999999  0.577008928571429 0.55078125  C 0.961681547619048 0.183593750000001  1.42410714285714 0  1.96428571428571 0  L 20.0357142857143 0  C 20.5758928571429 0  21.038318452381 0.183593750000001  21.4229910714286 0.55078125  Z " fill-rule="nonzero" fill="#409eff" stroke="none" transform="matrix(1 0 0 1 15 17 )" />
  </g>
</svg>