<?xml version="1.0" encoding="utf-8"?>
<svg version="1.1" xmlns:xlink="http://www.w3.org/1999/xlink" width="22px" height="19px" xmlns="http://www.w3.org/2000/svg">
  <g transform="matrix(1 0 0 1 -15 -10 )">
    <path d="M 3.14285714285714 6.33333333333333  L 3.14285714285714 15.8333333333333  L 18.8571428571429 15.8333333333333  L 18.8571428571429 6.33333333333333  L 3.14285714285714 6.33333333333333  Z M 21.4229910714286 0.581380208333334  C 21.8076636904762 0.968967013888888  22 1.43489583333333  22 1.97916666666667  L 22 17.0208333333333  C 22 17.5651041666667  21.8076636904762 18.0310329861111  21.4229910714286 18.4186197916667  C 21.038318452381 18.8062065972222  20.5758928571429 19  20.0357142857143 19  L 1.96428571428571 19  C 1.42410714285714 19  0.961681547619048 18.8062065972222  0.577008928571429 18.4186197916667  C 0.19233630952381 18.0310329861111  0 17.5651041666667  0 17.0208333333333  L 0 1.97916666666667  C 0 1.43489583333333  0.19233630952381 0.968967013888888  0.577008928571429 0.581380208333334  C 0.961681547619048 0.193793402777776  1.42410714285714 0  1.96428571428571 0  L 20.0357142857143 0  C 20.5758928571429 0  21.038318452381 0.193793402777776  21.4229910714286 0.581380208333334  Z " fill-rule="nonzero" fill="#aaaaaa" stroke="none" transform="matrix(1 0 0 1 15 10 )" />
  </g>
</svg>