<?xml version="1.0" encoding="utf-8"?>
<svg version="1.1" xmlns:xlink="http://www.w3.org/1999/xlink" width="22px" height="15px" xmlns="http://www.w3.org/2000/svg">
  <g transform="matrix(1 0 0 1 -15 -12 )">
    <path d="M 12.7285714285714 8.90625  C 12.8010989010989 8.84375  12.8333333333333 8.765625  12.8252747252747 8.671875  L 12.8252747252747 8.625  L 12.5351648351648 4.875  C 12.5271062271062 4.7734375  12.4827838827839 4.685546875  12.4021978021978 4.611328125  C 12.3216117216117 4.537109375  12.2289377289377 4.5  12.1241758241758 4.5  L 9.87582417582418 4.5  C 9.77106227106227 4.5  9.67838827838828 4.537109375  9.5978021978022 4.611328125  C 9.51721611721612 4.685546875  9.47289377289377 4.7734375  9.46483516483517 4.875  L 9.17472527472528 8.625  L 9.17472527472528 8.671875  C 9.16666666666667 8.765625  9.1989010989011 8.84375  9.27142857142857 8.90625  C 9.34395604395604 8.96875  9.42857142857143 9  9.52527472527473 9  L 12.4747252747253 9  C 12.5714285714286 9  12.656043956044 8.96875  12.7285714285714 8.90625  Z M 21.6857142857143 12.78515625  C 21.8952380952381 13.26953125  22 13.72265625  22 14.14453125  C 22 14.71484375  21.814652014652 15  21.443956043956 15  L 12.9340659340659 15  C 13.0388278388278 15  13.1274725274725 14.962890625  13.2 14.888671875  C 13.2725274725275 14.814453125  13.3047619047619 14.7265625  13.2967032967033 14.625  L 13.0549450549451 11.625  C 13.0468864468865 11.5234375  13.0025641025641 11.435546875  12.921978021978 11.361328125  C 12.8413919413919 11.287109375  12.7487179487179 11.25  12.643956043956 11.25  L 9.35604395604396 11.25  C 9.25128205128205 11.25  9.15860805860806 11.287109375  9.07802197802198 11.361328125  C 8.9974358974359 11.435546875  8.95311355311356 11.5234375  8.94505494505495 11.625  L 8.7032967032967 14.625  C 8.6952380952381 14.7265625  8.72747252747253 14.814453125  8.8 14.888671875  C 8.87252747252747 14.962890625  8.96117216117216 15  9.06593406593407 15  L 0.556043956043956 15  C 0.185347985347985 15  0 14.71484375  0 14.14453125  C 0 13.72265625  0.104761904761905 13.26953125  0.314285714285714 12.78515625  L 5.35494505494505 0.55078125  C 5.41941391941392 0.402343749999999  5.52417582417583 0.273437499999999  5.66923076923077 0.164062500000001  C 5.81428571428571 0.0546874999999986  5.96739926739927 0  6.12857142857143 0  L 10.2263736263736 0  C 10.1216117216117 0  10.0289377289377 0.0371093749999979  9.94835164835165 0.111328125  C 9.86776556776557 0.185546874999999  9.82344322344322 0.273437499999999  9.81538461538462 0.375  L 9.63406593406593 2.625  C 9.62600732600733 2.734375  9.65824175824176 2.82421875  9.73076923076923 2.89453125  C 9.80329670329671 2.96484375  9.89194139194139 3  9.9967032967033 3  L 12.0032967032967 3  C 12.1080586080586 3  12.1967032967033 2.96484375  12.2692307692308 2.89453125  C 12.3417582417582 2.82421875  12.3739926739927 2.734375  12.3659340659341 2.625  L 12.1846153846154 0.375  C 12.1765567765568 0.273437499999999  12.1322344322344 0.185546874999999  12.0516483516484 0.111328125  C 11.9710622710623 0.0371093749999979  11.8783882783883 0  11.7736263736264 0  L 15.8714285714286 0  C 16.0326007326007 0  16.1857142857143 0.0546874999999986  16.3307692307692 0.164062500000001  C 16.4758241758242 0.273437499999999  16.5805860805861 0.402343749999999  16.6450549450549 0.55078125  L 21.6857142857143 12.78515625  Z " fill-rule="nonzero" fill="#409eff" stroke="none" transform="matrix(1 0 0 1 15 12 )" />
  </g>
</svg>