<?xml version="1.0" encoding="utf-8"?>
<svg version="1.1" xmlns:xlink="http://www.w3.org/1999/xlink" width="17px" height="21px" xmlns="http://www.w3.org/2000/svg">
  <g transform="matrix(1 0 0 1 -18 -9 )">
    <path d="M 14.2268588770865 4.37920673076923  C 12.9714213454729 6.46574519230769  11.453717754173 9.03185096153846  9.67374810318665 12.0775240384615  L 9.84142640364188 21  C 9.30829539706626 20.9074519230769  8.85685381891755 20.8611778846154  8.48710166919575 20.8611778846154  C 8.13454729387962 20.8611778846154  7.68310571573091 20.9074519230769  7.13277693474962 21  L 7.30045523520486 12.0775240384615  C 6.95649974709155 11.4969951923077  6.23204350025291 10.25390625  5.12708649468892 8.34825721153846  C 4.02212948912494 6.44260817307692  3.09129994941831 4.8671875  2.33459787556904 3.62199519230769  C 1.57789580171978 2.37680288461538  0.799696509863429 1.16947115384615  0 0  C 0.49873545776429 0.126201923076924  0.963075366717249 0.189302884615386  1.39301972685888 0.189302884615386  C 1.77137076378351 0.189302884615386  2.24860900354072 0.126201923076924  2.8247344461305 0  C 3.36646433990895 0.933894230769231  3.94044006069803 1.89933894230769  4.54666160849772 2.89633413461539  C 5.15288315629742 3.89332932692308  5.87089023773394 5.05649038461538  6.70068285280728 6.38581730769231  C 7.53047546788063 7.71514423076923  8.12594840667678 8.67007211538462  8.48710166919575 9.25060096153846  C 8.80526049570056 8.73737980769231  9.27604957005564 7.99068509615384  9.899468892261 7.01051682692308  C 10.5228882144664 6.03034855769231  11.0280728376328 5.23106971153846  11.4150227617602 4.61268028846154  C 11.8019726858877 3.99429086538461  12.2534142640364 3.25390625  12.7693474962064 2.39152644230769  C 13.2852807283763 1.52914663461538  13.7453211937279 0.731971153846155  14.149468892261 0  C 14.613808801214 0.117788461538461  15.0738492665655 0.176682692307693  15.5295902883156 0.176682692307693  C 16.0111279716743 0.176682692307693  16.5012645422357 0.117788461538461  17 0  C 16.7592311583207 0.328125  16.5012645422357 0.700420673076924  16.2261001517451 1.11688701923077  C 15.9509357612544 1.53335336538461  15.7381133029843 1.86358173076923  15.5876327769348 2.10757211538461  C 15.4371522508852 2.3515625  15.1942336874052 2.75540865384615  14.8588770864947 3.31911057692308  C 14.5235204855842 3.8828125  14.3128477491148 4.23617788461538  14.2268588770865 4.37920673076923  Z " fill-rule="nonzero" fill="#aaaaaa" stroke="none" transform="matrix(1 0 0 1 18 9 )" />
  </g>
</svg>