<?xml version="1.0" encoding="utf-8"?>
<svg version="1.1" xmlns:xlink="http://www.w3.org/1999/xlink" width="22px" height="19px" xmlns="http://www.w3.org/2000/svg">
  <g transform="matrix(1 0 0 1 -15 -10 )">
    <path d="M 21.65625 13.0130208333333  C 21.8854166666667 13.2439236111111  22 13.5243055555556  22 13.8541666666667  L 22 17.8125  C 22 18.1423611111111  21.8854166666667 18.4227430555556  21.65625 18.6536458333333  C 21.4270833333333 18.8845486111111  21.1488095238095 19  20.8214285714286 19  L 16.8928571428571 19  C 16.5654761904762 19  16.2872023809524 18.8845486111111  16.0580357142857 18.6536458333333  C 15.828869047619 18.4227430555556  15.7142857142857 18.1423611111111  15.7142857142857 17.8125  L 15.7142857142857 13.8541666666667  C 15.7142857142857 13.5243055555556  15.828869047619 13.2439236111111  16.0580357142857 13.0130208333333  C 16.2872023809524 12.7821180555556  16.5654761904762 12.6666666666667  16.8928571428571 12.6666666666667  L 18.0714285714286 12.6666666666667  L 18.0714285714286 10.2916666666667  L 11.7857142857143 10.2916666666667  L 11.7857142857143 12.6666666666667  L 12.9642857142857 12.6666666666667  C 13.2916666666667 12.6666666666667  13.5699404761905 12.7821180555556  13.7991071428571 13.0130208333333  C 14.0282738095238 13.2439236111111  14.1428571428571 13.5243055555556  14.1428571428571 13.8541666666667  L 14.1428571428571 17.8125  C 14.1428571428571 18.1423611111111  14.0282738095238 18.4227430555556  13.7991071428571 18.6536458333333  C 13.5699404761905 18.8845486111111  13.2916666666667 19  12.9642857142857 19  L 9.03571428571428 19  C 8.70833333333333 19  8.43005952380952 18.8845486111111  8.20089285714286 18.6536458333333  C 7.97172619047619 18.4227430555556  7.85714285714286 18.1423611111111  7.85714285714286 17.8125  L 7.85714285714286 13.8541666666667  C 7.85714285714286 13.5243055555556  7.97172619047619 13.2439236111111  8.20089285714286 13.0130208333333  C 8.43005952380952 12.7821180555556  8.70833333333333 12.6666666666667  9.03571428571428 12.6666666666667  L 10.2142857142857 12.6666666666667  L 10.2142857142857 10.2916666666667  L 3.92857142857143 10.2916666666667  L 3.92857142857143 12.6666666666667  L 5.10714285714286 12.6666666666667  C 5.43452380952381 12.6666666666667  5.71279761904762 12.7821180555556  5.94196428571429 13.0130208333333  C 6.17113095238095 13.2439236111111  6.28571428571429 13.5243055555556  6.28571428571429 13.8541666666667  L 6.28571428571429 17.8125  C 6.28571428571429 18.1423611111111  6.17113095238095 18.4227430555556  5.94196428571429 18.6536458333333  C 5.71279761904762 18.8845486111111  5.43452380952381 19  5.10714285714286 19  L 1.17857142857143 19  C 0.851190476190476 19  0.572916666666667 18.8845486111111  0.34375 18.6536458333333  C 0.114583333333333 18.4227430555556  0 18.1423611111111  0 17.8125  L 0 13.8541666666667  C 0 13.5243055555556  0.114583333333333 13.2439236111111  0.34375 13.0130208333333  C 0.572916666666667 12.7821180555556  0.851190476190476 12.6666666666667  1.17857142857143 12.6666666666667  L 2.35714285714286 12.6666666666667  L 2.35714285714286 10.2916666666667  C 2.35714285714286 9.86284722222222  2.51264880952381 9.49175347222222  2.82366071428571 9.17838541666667  C 3.13467261904762 8.86501736111111  3.50297619047619 8.70833333333333  3.92857142857143 8.70833333333333  L 10.2142857142857 8.70833333333333  L 10.2142857142857 6.33333333333333  L 9.03571428571428 6.33333333333333  C 8.70833333333333 6.33333333333333  8.43005952380952 6.21788194444444  8.20089285714286 5.98697916666667  C 7.97172619047619 5.75607638888889  7.85714285714286 5.47569444444444  7.85714285714286 5.14583333333333  L 7.85714285714286 1.1875  C 7.85714285714286 0.857638888888888  7.97172619047619 0.577256944444442  8.20089285714286 0.346354166666666  C 8.43005952380952 0.115451388888888  8.70833333333333 0  9.03571428571428 0  L 12.9642857142857 0  C 13.2916666666667 0  13.5699404761905 0.115451388888888  13.7991071428571 0.346354166666666  C 14.0282738095238 0.577256944444442  14.1428571428571 0.857638888888888  14.1428571428571 1.1875  L 14.1428571428571 5.14583333333333  C 14.1428571428571 5.47569444444444  14.0282738095238 5.75607638888889  13.7991071428571 5.98697916666667  C 13.5699404761905 6.21788194444444  13.2916666666667 6.33333333333333  12.9642857142857 6.33333333333333  L 11.7857142857143 6.33333333333333  L 11.7857142857143 8.70833333333333  L 18.0714285714286 8.70833333333333  C 18.4970238095238 8.70833333333333  18.8653273809524 8.86501736111111  19.1763392857143 9.17838541666667  C 19.4873511904762 9.49175347222222  19.6428571428571 9.86284722222222  19.6428571428571 10.2916666666667  L 19.6428571428571 12.6666666666667  L 20.8214285714286 12.6666666666667  C 21.1488095238095 12.6666666666667  21.4270833333333 12.7821180555556  21.65625 13.0130208333333  Z " fill-rule="nonzero" fill="#aaaaaa" stroke="none" transform="matrix(1 0 0 1 15 10 )" />
  </g>
</svg>