<?xml version="1.0" encoding="utf-8"?>
<svg version="1.1" xmlns:xlink="http://www.w3.org/1999/xlink" width="22px" height="21px" xmlns="http://www.w3.org/2000/svg">
  <g transform="matrix(1 0 0 1 -15 -9 )">
    <path d="M 11 9.883125  C 11.2732371794872 9.883125  11.5552884615385 9.93125  11.8461538461538 10.0275  L 11.8461538461538 17.64  C 11.8461538461538 18.55  11.5112179487179 19.3375  10.8413461538462 20.0025  C 10.1714743589744 20.6675  9.37820512820513 21  8.46153846153846 21  C 7.5448717948718 21  6.75160256410256 20.6675  6.08173076923077 20.0025  C 5.41185897435897 19.3375  5.07692307692308 18.55  5.07692307692308 17.64  C 5.07692307692308 17.4125  5.16065705128205 17.215625  5.328125 17.049375  C 5.49559294871795 16.883125  5.69391025641026 16.8  5.92307692307692 16.8  C 6.15224358974359 16.8  6.3505608974359 16.883125  6.51802884615385 17.049375  C 6.68549679487179 17.215625  6.76923076923077 17.4125  6.76923076923077 17.64  C 6.76923076923077 18.0775  6.94110576923077 18.466875  7.28485576923077 18.808125  C 7.62860576923077 19.149375  8.02083333333333 19.32  8.46153846153846 19.32  C 8.90224358974359 19.32  9.29447115384616 19.149375  9.63822115384616 18.808125  C 9.98197115384616 18.466875  10.1538461538462 18.0775  10.1538461538462 17.64  L 10.1538461538462 10.0275  C 10.4447115384615 9.93125  10.7267628205128 9.883125  11 9.883125  Z M 21.9867788461538 10.29  C 21.9955929487179 10.3075  22 10.338125  22 10.381875  C 22 10.495625  21.9581330128205 10.5940625  21.8743990384615 10.6771875  C 21.7906650641026 10.7603125  21.6915064102564 10.801875  21.5769230769231 10.801875  C 21.4799679487179 10.801875  21.3786057692308 10.758125  21.2728365384615 10.670625  C 20.8409455128205 10.268125  20.4310897435897 9.96625  20.0432692307692 9.765  C 19.6554487179487 9.56375  19.2059294871795 9.463125  18.6947115384615 9.463125  C 18.0953525641026 9.463125  17.53125 9.625  17.0024038461538 9.94875  C 16.4735576923077 10.2725  16.0196314102564 10.696875  15.640625 11.221875  C 15.5789262820513 11.309375  15.5018028846154 11.431875  15.4092548076923 11.589375  C 15.3167067307692 11.746875  15.2528044871795 11.851875  15.2175480769231 11.904375  C 15.1205929487179 12.053125  14.9971955128205 12.1275  14.8473557692308 12.1275  C 14.6887019230769 12.1275  14.5608974358974 12.053125  14.4639423076923 11.904375  C 14.4286858974359 11.851875  14.3647836538462 11.746875  14.2722355769231 11.589375  C 14.1796875 11.431875  14.1025641025641 11.309375  14.0408653846154 11.221875  C 13.661858974359 10.696875  13.2101362179487 10.2725  12.6856971153846 9.94875  C 12.1612580128205 9.625  11.599358974359 9.463125  11 9.463125  C 10.400641025641 9.463125  9.83874198717949 9.625  9.31430288461539 9.94875  C 8.78986378205128 10.2725  8.33814102564103 10.696875  7.95913461538462 11.221875  C 7.8974358974359 11.309375  7.8203125 11.431875  7.72776442307692 11.589375  C 7.63521634615385 11.746875  7.5713141025641 11.851875  7.53605769230769 11.904375  C 7.43910256410256 12.053125  7.31129807692308 12.1275  7.15264423076923 12.1275  C 7.00280448717949 12.1275  6.87940705128205 12.053125  6.78245192307692 11.904375  C 6.74719551282051 11.851875  6.68329326923077 11.746875  6.59074519230769 11.589375  C 6.49819711538462 11.431875  6.42107371794872 11.309375  6.359375 11.221875  C 5.98036858974359 10.696875  5.52644230769231 10.2725  4.99759615384615 9.94875  C 4.46875 9.625  3.90464743589744 9.463125  3.30528846153846 9.463125  C 2.79407051282051 9.463125  2.34455128205128 9.56375  1.95673076923077 9.765  C 1.56891025641026 9.96625  1.15905448717949 10.268125  0.727163461538462 10.670625  C 0.621394230769231 10.758125  0.520032051282051 10.801875  0.423076923076923 10.801875  C 0.30849358974359 10.801875  0.209334935897436 10.7603125  0.125600961538462 10.6771875  C 0.0418669871794872 10.5940625  0 10.495625  0 10.381875  C 0 10.338125  0.00440705128205128 10.3075  0.0132211538461538 10.29  C 0.409855769230769 8.68875  1.17007211538462 7.2909375  2.29387019230769 6.0965625  C 3.41766826923077 4.9021875  4.73096955128205 4.0075  6.23377403846154 3.4125  C 7.73657852564103 2.8175  9.32532051282051 2.52  11 2.52  C 12.2339743589744 2.52  13.4437099358974 2.695  14.6292067307692 3.045  C 15.814703525641 3.395  16.9010416666667 3.8915625  17.8882211538462 4.5346875  C 18.8754006410256 5.1778125  19.7325721153846 5.9959375  20.4597355769231 6.9890625  C 21.1868990384615 7.9821875  21.6959134615385 9.0825  21.9867788461538 10.29  Z M 11.5949519230769 0.249374999999999  C 11.7624198717949 0.415624999999997  11.8461538461538 0.612499999999998  11.8461538461538 0.840000000000001  L 11.8461538461538 2.12625  C 11.4759615384615 2.10875  11.1939102564103 2.1  11 2.1  C 10.8060897435897 2.1  10.5240384615385 2.10875  10.1538461538462 2.12625  L 10.1538461538462 0.840000000000001  C 10.1538461538462 0.612499999999998  10.2375801282051 0.415624999999997  10.4050480769231 0.249374999999999  C 10.572516025641 0.083124999999999  10.7708333333333 0  11 0  C 11.2291666666667 0  11.427483974359 0.083124999999999  11.5949519230769 0.249374999999999  Z " fill-rule="nonzero" fill="#aaaaaa" stroke="none" transform="matrix(1 0 0 1 15 9 )" />
  </g>
</svg>