<?xml version="1.0" encoding="utf-8"?>
<svg version="1.1" xmlns:xlink="http://www.w3.org/1999/xlink" width="21px" height="21px" xmlns="http://www.w3.org/2000/svg">
  <g transform="matrix(1 0 0 1 -16 -9 )">
    <path d="M 0.75 0  L 5.25 0  C 5.453125 0  5.62890625 0.0742187500000018  5.77734375 0.222656250000001  C 5.92578125 0.371093749999997  6 0.546874999999999  6 0.75  L 6 11.19140625  L 12.28125 6.1640625  C 12.4140625 6.0546875  12.5703125 6  12.75 6  C 12.953125 6  13.12890625 6.07421875  13.27734375 6.22265625  C 13.42578125 6.37109375  13.5 6.546875  13.5 6.75  L 13.5 11.19140625  L 19.78125 6.1640625  C 19.9140625 6.0546875  20.0703125 6  20.25 6  C 20.453125 6  20.62890625 6.07421875  20.77734375 6.22265625  C 20.92578125 6.37109375  21 6.546875  21 6.75  L 21 20.25  C 21 20.453125  20.92578125 20.62890625  20.77734375 20.77734375  C 20.62890625 20.92578125  20.453125 21  20.25 21  L 0.75 21  C 0.546875 21  0.37109375 20.92578125  0.22265625 20.77734375  C 0.07421875 20.62890625  0 20.453125  0 20.25  L 0 0.75  C 0 0.546874999999999  0.07421875 0.371093749999997  0.22265625 0.222656250000001  C 0.37109375 0.0742187500000018  0.546875 0  0.75 0  Z " fill-rule="nonzero" fill="#aaaaaa" stroke="none" transform="matrix(1 0 0 1 16 9 )" />
  </g>
</svg>