<?xml version="1.0" encoding="utf-8"?>
<svg version="1.1" xmlns:xlink="http://www.w3.org/1999/xlink" width="21px" height="21px" xmlns="http://www.w3.org/2000/svg">
  <g transform="matrix(1 0 0 1 -16 -9 )">
    <path d="M 4.40219378427788 17.7534996956786  C 4.5642900670323 17.5916007303713  4.64533820840951 17.3998782714547  4.64533820840951 17.1783323189288  C 4.64533820840951 16.9567863664029  4.5642900670323 16.7650639074863  4.40219378427788 16.6031649421789  C 4.24009750152346 16.4412659768716  4.04814137720902 16.3603164942179  3.82632541133455 16.3603164942179  C 3.60450944546009 16.3603164942179  3.41255332114564 16.4412659768716  3.25045703839122 16.6031649421789  C 3.08836075563681 16.7650639074863  3.0073126142596 16.9567863664029  3.0073126142596 17.1783323189288  C 3.0073126142596 17.3998782714547  3.08836075563681 17.5916007303713  3.25045703839122 17.7534996956786  C 3.41255332114564 17.915398660986  3.60450944546009 17.9963481436397  3.82632541133455 17.9963481436397  C 4.04814137720902 17.9963481436397  4.24009750152346 17.915398660986  4.40219378427788 17.7534996956786  Z M 10.6663619744059 10.3466220328667  C 11.3104814137721 10.9899573950091  12.0505789152956 11.4777845404747  12.8866544789762 11.8101034692635  L 4.15904936014625 20.527084601339  C 3.84338817794028 20.8423615337797  3.4594759293114 21  3.0073126142596 21  C 2.56368068251066 21  2.17550274223035 20.8423615337797  1.84277879341865 20.527084601339  L 0.486288848263254 19.1466828971394  C 0.162096282754418 18.8399269628728  0 18.4564820450396  0 17.9963481436397  C 0 17.5447352404139  0.162096282754418 17.1570298234936  0.486288848263254 16.8332318928789  L 9.20109689213894 8.12903225806452  C 9.53382084095064 8.96409007912355  10.0222425350396 9.70328667072428  10.6663619744059 10.3466220328667  Z M 20.8912248628885 5.93061472915399  C 20.9637416209628 6.0158247108947  21 6.1223371880706  21 6.25015216068168  C 21 6.58247108947048  20.9018890920171 7.03408399269629  20.7056672760512 7.6049908703591  C 20.3046922608166 8.74680462568472  19.602985984156 9.67346317711503  18.6005484460695 10.38496652465  C 17.5981109079829 11.096469872185  16.4954296160878 11.4522215459525  15.2925045703839 11.4522215459525  C 13.7141986593541 11.4522215459525  12.3641072516758 10.8919659160073  11.2422303473492 9.77145465611686  C 10.1203534430225 8.65094339622641  9.55941499085923 7.30249543517955  9.55941499085923 5.72611077297626  C 9.55941499085923 4.14972611077298  10.1203534430225 2.80127814972611  11.2422303473492 1.68076688983567  C 12.3641072516758 0.560255629945221  13.7141986593541 0  15.2925045703839 0  C 15.78732480195 0  16.305606337599 0.0702982349360936  16.8473491773309 0.210894704808278  C 17.3890920170628 0.351491174680463  17.8476538695917 0.549604382227633  18.2230347349177 0.805234327449788  C 18.3595368677636 0.898965307364575  18.4277879341865 1.01825928180158  18.4277879341865 1.1631162507608  C 18.4277879341865 1.30797321972002  18.3595368677636 1.42726719415703  18.2230347349177 1.52099817407182  L 14.473491773309 3.68107121119903  L 14.473491773309 6.54412659768716  L 16.9433272394881 7.91174680462568  C 16.9859841560024 7.88618381010347  17.3229737964656 7.67954960438223  17.9542961608775 7.29184418746196  C 18.5856185252895 6.90413877054169  19.1636197440585 6.55903834449178  19.6882998171846 6.25654290931223  C 20.2129798903108 5.95404747413268  20.5137111517367 5.80279975654291  20.5904936014625 5.80279975654291  C 20.7184643510055 5.80279975654291  20.8187081048141 5.84540474741327  20.8912248628885 5.93061472915399  Z " fill-rule="nonzero" fill="#aaaaaa" stroke="none" transform="matrix(1 0 0 1 16 9 )" />
  </g>
</svg>