<?xml version="1.0" encoding="utf-8"?>
<svg version="1.1" xmlns:xlink="http://www.w3.org/1999/xlink" width="22px" height="20px" xmlns="http://www.w3.org/2000/svg">
  <g transform="matrix(1 0 0 1 -15 -10 )">
    <path d="M 9.40729166666667 12.0499716070415  C 9.98020833333333 11.4821124361158  10.2666666666667 10.7968957031989  10.2666666666667 9.99432140829074  C 10.2666666666667 9.19174711338255  9.98020833333333 8.50653038046564  9.40729166666667 7.93867120954003  C 8.834375 7.37081203861442  8.14305555555556 7.08688245315162  7.33333333333333 7.08688245315162  C 6.52361111111111 7.08688245315162  5.83229166666667 7.37081203861442  5.259375 7.93867120954003  C 4.68645833333333 8.50653038046564  4.4 9.19174711338255  4.4 9.99432140829074  C 4.4 10.7968957031989  4.68645833333333 11.4821124361158  5.259375 12.0499716070415  C 5.83229166666667 12.6178307779671  6.52361111111111 12.9017603634299  7.33333333333333 12.9017603634299  C 8.14305555555556 12.9017603634299  8.834375 12.6178307779671  9.40729166666667 12.0499716070415  Z M 18.6369791666667 16.8370244179443  C 18.9234375 16.5530948324815  19.0666666666667 16.2104864660231  19.0666666666667 15.809199318569  C 19.0666666666667 15.4154836267272  18.9215277777778 15.0747681241719  18.63125 14.7870528109029  C 18.3409722222222 14.4993374976339  17.9972222222222 14.3554798409994  17.6 14.3554798409994  C 17.2027777777778 14.3554798409994  16.8590277777778 14.4993374976339  16.56875 14.7870528109029  C 16.2784722222222 15.0747681241719  16.1333333333333 15.4154836267272  16.1333333333333 15.809199318569  C 16.1333333333333 16.2104864660231  16.2765625 16.5530948324815  16.5630208333333 16.8370244179443  C 16.8494791666667 17.1209540034072  17.1951388888889 17.2629187961386  17.6 17.2629187961386  C 18.0048611111111 17.2629187961386  18.3505208333333 17.1209540034072  18.6369791666667 16.8370244179443  Z M 18.6369791666667 5.20726859738785  C 18.9234375 4.92333901192504  19.0666666666667 4.58073064546659  19.0666666666667 4.17944349801249  C 19.0666666666667 3.78572780617074  18.9215277777778 3.44501230361537  18.63125 3.15729699034639  C 18.3409722222222 2.86958167707742  17.9972222222222 2.72572402044293  17.6 2.72572402044293  C 17.2027777777778 2.72572402044293  16.8590277777778 2.86958167707742  16.56875 3.15729699034639  C 16.2784722222222 3.44501230361537  16.1333333333333 3.78572780617074  16.1333333333333 4.17944349801249  C 16.1333333333333 4.58073064546659  16.2765625 4.92333901192504  16.5630208333333 5.20726859738785  C 16.8494791666667 5.49119818285065  17.1951388888889 5.63316297558206  17.6 5.63316297558206  C 18.0048611111111 5.63316297558206  18.3505208333333 5.49119818285065  18.6369791666667 5.20726859738785  Z M 14.5864583333333 8.73935264054514  C 14.6399305555556 8.80371001325005  14.6666666666667 8.87753170547038  14.6666666666667 8.96081771720613  L 14.6666666666667 11.0618966496309  C 14.6666666666667 11.1376112057543  14.6399305555556 11.2114328979746  14.5864583333333 11.2833617262919  C 14.5329861111111 11.3552905546091  14.471875 11.3950406965739  14.403125 11.4026121521863  L 12.6270833333333 11.6751845542306  C 12.5430555555556 11.9401855006625  12.4208333333333 12.2279008139315  12.2604166666667 12.5383304940375  C 12.5201388888889 12.9017603634299  12.8638888888889 13.3371190611395  13.2916666666667 13.8444065871664  C 13.3451388888889 13.9276925989021  13.371875 14.0034071550256  13.371875 14.0715502555366  C 13.371875 14.1624077228847  13.3451388888889 14.234336551202  13.2916666666667 14.2873367404884  C 13.1159722222222 14.5144804088586  12.8008680555556 14.8533030475109  12.3463541666667 15.3038046564452  C 11.8918402777778 15.7543062653795  11.5920138888889 15.9795570698467  11.446875 15.9795570698467  C 11.3628472222222 15.9795570698467  11.2826388888889 15.9530569752035  11.20625 15.9000567859171  L 9.88854166666667 14.877910278251  C 9.60590277777778 15.0217679348855  9.31180555555556 15.1391254968768  9.00625 15.2299829642249  C 8.92222222222222 16.0477001703578  8.834375 16.6344879803142  8.74270833333333 16.9903463940943  C 8.68923611111111 17.1720613287905  8.57465277777778 17.2629187961386  8.39895833333333 17.2629187961386  L 6.26770833333333 17.2629187961386  C 6.18368055555556 17.2629187961386  6.10729166666667 17.2345258375923  6.03854166666667 17.1777399204997  C 5.96979166666667 17.1209540034072  5.93159722222222 17.0547037667992  5.92395833333333 16.9789892106758  L 5.66041666666667 15.2413401476434  C 5.40069444444444 15.16562559152  5.11423611111111 15.0482680295287  4.80104166666667 14.8892674616695  L 3.44895833333333 15.9000567859171  C 3.39548611111111 15.9530569752035  3.31909722222222 15.9795570698467  3.21979166666667 15.9795570698467  C 3.13576388888889 15.9795570698467  3.05555555555556 15.9492712473973  2.97916666666667 15.8886996024986  C 1.87916666666667 14.8816960060572  1.32916666666667 14.2759795570698  1.32916666666667 14.0715502555366  C 1.32916666666667 14.0034071550256  1.35590277777778 13.9314783267083  1.409375 13.8557637705849  C 1.48576388888889 13.7497633920121  1.64236111111111 13.5491198182851  1.87916666666667 13.2538330494037  C 2.11597222222222 12.9585462805224  2.29548611111111 12.727616884346  2.41770833333333 12.5610448608745  C 2.24201388888889 12.2279008139315  2.10833333333333 11.9174711338255  2.01666666666667 11.6297558205565  L 0.275 11.3571834185122  C 0.198611111111111 11.3496119628999  0.133680555555556 11.3136475487412  0.0802083333333333 11.2492901760363  C 0.0267361111111111 11.1849328033314  0 11.1111111111111  0 11.0278250993754  L 0 8.9267461669506  C 0 8.85103161082718  0.0267361111111111 8.77720991860685  0.0802083333333333 8.70528109028961  C 0.133680555555556 8.63335226197236  0.194791666666667 8.59360212000757  0.263541666666667 8.58603066439523  L 2.03958333333333 8.31345826235094  C 2.12361111111111 8.04845731591898  2.24583333333333 7.76074200265001  2.40625 7.45031232254401  C 2.14652777777778 7.08688245315162  1.80277777777778 6.65152375544198  1.375 6.1442362294151  C 1.32152777777778 6.06095021767935  1.29479166666667 5.98523566155593  1.29479166666667 5.91709256104486  C 1.29479166666667 5.82623509369676  1.32152777777778 5.75052053757335  1.375 5.68994889267462  C 1.54305555555556 5.46280522430437  1.85625 5.12587544955518  2.31458333333333 4.67915956842703  C 2.77291666666667 4.23244368729888  3.07465277777778 4.00908574673481  3.21979166666667 4.00908574673481  C 3.30381944444445 4.00908574673481  3.38402777777778 4.035585841378  3.46041666666667 4.0885860306644  L 4.778125 5.11073253833049  C 5.03784722222222 4.97444633730835  5.33194444444444 4.85330304751088  5.66041666666667 4.7473026689381  C 5.74444444444444 3.92958546280523  5.83229166666667 3.34658338065493  5.92395833333333 2.99829642248722  C 5.97743055555556 2.81658148779103  6.09201388888889 2.72572402044293  6.26770833333333 2.72572402044293  L 8.39895833333333 2.72572402044293  C 8.48298611111111 2.72572402044293  8.559375 2.75411697898921  8.628125 2.81090289608177  C 8.696875 2.86768881317433  8.73506944444445 2.93393904978232  8.74270833333333 3.00965360590574  L 9.00625 4.7473026689381  C 9.26597222222222 4.82301722506152  9.55243055555556 4.94037478705281  9.865625 5.09937535491198  L 11.2177083333333 4.0885860306644  C 11.2788194444444 4.035585841378  11.3552083333333 4.00908574673481  11.446875 4.00908574673481  C 11.5309027777778 4.00908574673481  11.6111111111111 4.03937156918417  11.6875 4.09994321408291  C 12.7875 5.10694681052432  13.3375 5.71266325951164  13.3375 5.91709256104486  C 13.3375 5.97766420594359  13.3107638888889 6.04959303426083  13.2572916666667 6.13287904599659  C 13.165625 6.25402233579405  13.0052083333333 6.45845163732727  12.7760416666667 6.74616695059625  C 12.546875 7.03388226386523  12.375 7.26102593223547  12.2604166666667 7.42759795570698  C 12.4361111111111 7.79102782509938  12.5659722222222 8.10145750520537  12.65 8.35888699602499  L 14.3916666666667 8.62010221465077  C 14.4680555555556 8.63524512587545  14.5329861111111 8.67499526784024  14.5864583333333 8.73935264054514  Z M 20.2927083333333 14.6621237932993  C 21.4309027777778 14.7756956274844  22 14.8930531894757  22 15.0141964792731  L 22 16.6042021578648  C 22 16.7253454476623  21.4309027777778 16.8427030096536  20.2927083333333 16.9562748438387  C 20.2010416666667 17.1607041453719  20.0864583333333 17.3575619912928  19.9489583333333 17.5468483816014  C 20.3385416666667 18.4024228657959  20.5333333333333 18.9248533030475  20.5333333333333 19.114139693356  C 20.5333333333333 19.1444255158054  20.5180555555556 19.1709256104486  20.4875 19.1936399772856  C 19.5555555555556 19.7312133257619  19.0819444444444 20  19.0666666666667 20  C 19.0055555555556 20  18.8298611111111 19.82207079311  18.5395833333333 19.4662123793299  C 18.2493055555556 19.1103539655499  18.0506944444444 18.8529244747303  17.94375 18.6939239068711  C 17.7909722222222 18.7090668180958  17.6763888888889 18.7166382737081  17.6 18.7166382737081  C 17.5236111111111 18.7166382737081  17.4090277777778 18.7090668180958  17.25625 18.6939239068711  C 17.1493055555556 18.8529244747303  16.9506944444444 19.1103539655499  16.6604166666667 19.4662123793299  C 16.3701388888889 19.82207079311  16.1944444444444 20  16.1333333333333 20  C 16.1180555555556 20  15.6444444444444 19.7312133257619  14.7125 19.1936399772856  C 14.6819444444444 19.1709256104486  14.6666666666667 19.1444255158054  14.6666666666667 19.114139693356  C 14.6666666666667 18.9248533030475  14.8614583333333 18.4024228657959  15.2510416666667 17.5468483816014  C 15.1135416666667 17.3575619912928  14.9989583333333 17.1607041453719  14.9072916666667 16.9562748438387  C 13.7690972222222 16.8427030096536  13.2 16.7253454476623  13.2 16.6042021578648  L 13.2 15.0141964792731  C 13.2 14.8930531894757  13.7690972222222 14.7756956274844  14.9072916666667 14.6621237932993  C 15.0065972222222 14.4425515805414  15.1211805555556 14.2456937346205  15.2510416666667 14.0715502555366  C 14.8614583333333 13.215975771342  14.6666666666667 12.6935453340905  14.6666666666667 12.5042589437819  C 14.6666666666667 12.4739731213326  14.6819444444444 12.4474730266894  14.7125 12.4247586598524  C 14.7430555555556 12.4096157486277  14.8767361111111 12.3339011925043  15.1135416666667 12.1976149914821  C 15.3503472222222 12.06132879046  15.5756944444444 11.9326140450502  15.7895833333333 11.8114707552527  C 16.0034722222222 11.6903274654552  16.1180555555556 11.6297558205565  16.1333333333333 11.6297558205565  C 16.1944444444444 11.6297558205565  16.3701388888889 11.8057921635434  16.6604166666667 12.1578648495173  C 16.9506944444444 12.5099375354912  17.1493055555556 12.7654741624077  17.25625 12.9244747302669  C 17.4090277777778 12.9093318190422  17.5236111111111 12.9017603634299  17.6 12.9017603634299  C 17.6763888888889 12.9017603634299  17.7909722222222 12.9093318190422  17.94375 12.9244747302669  C 18.3333333333333 12.3869013817906  18.6847222222222 11.9628998674995  18.9979166666667 11.6524701873935  L 19.0666666666667 11.6297558205565  C 19.0972222222222 11.6297558205565  19.5708333333333 11.8947567669885  20.4875 12.4247586598524  C 20.5180555555556 12.4474730266894  20.5333333333333 12.4739731213326  20.5333333333333 12.5042589437819  C 20.5333333333333 12.6935453340905  20.3385416666667 13.215975771342  19.9489583333333 14.0715502555366  C 20.0788194444444 14.2456937346205  20.1934027777778 14.4425515805414  20.2927083333333 14.6621237932993  Z M 20.2927083333333 3.03236797274276  C 21.4309027777778 3.14593980692788  22 3.26329736891917  22 3.38444065871664  L 22 4.97444633730835  C 22 5.09558962710581  21.4309027777778 5.2129471890971  20.2927083333333 5.32651902328223  C 20.2010416666667 5.53094832481545  20.0864583333333 5.72780617073632  19.9489583333333 5.91709256104486  C 20.3385416666667 6.77266704523945  20.5333333333333 7.29509748249101  20.5333333333333 7.48438387279954  C 20.5333333333333 7.51466969524891  20.5180555555556 7.54116978989211  20.4875 7.56388415672913  C 19.5555555555556 8.10145750520537  19.0819444444444 8.3702441794435  19.0666666666667 8.3702441794435  C 19.0055555555556 8.3702441794435  18.8298611111111 8.19231497255347  18.5395833333333 7.83645655877342  C 18.2493055555556 7.48059814499337  18.0506944444444 7.22316865417376  17.94375 7.0641680863146  C 17.7909722222222 7.07931099753928  17.6763888888889 7.08688245315162  17.6 7.08688245315162  C 17.5236111111111 7.08688245315162  17.4090277777778 7.07931099753928  17.25625 7.0641680863146  C 17.1493055555556 7.22316865417376  16.9506944444444 7.48059814499337  16.6604166666667 7.83645655877342  C 16.3701388888889 8.19231497255347  16.1944444444444 8.3702441794435  16.1333333333333 8.3702441794435  C 16.1180555555556 8.3702441794435  15.6444444444444 8.10145750520537  14.7125 7.56388415672913  C 14.6819444444444 7.54116978989211  14.6666666666667 7.51466969524891  14.6666666666667 7.48438387279954  C 14.6666666666667 7.29509748249101  14.8614583333333 6.77266704523945  15.2510416666667 5.91709256104486  C 15.1135416666667 5.72780617073632  14.9989583333333 5.53094832481545  14.9072916666667 5.32651902328223  C 13.7690972222222 5.2129471890971  13.2 5.09558962710581  13.2 4.97444633730835  L 13.2 3.38444065871664  C 13.2 3.26329736891917  13.7690972222222 3.14593980692788  14.9072916666667 3.03236797274276  C 15.0065972222222 2.81279575998486  15.1211805555556 2.61593791406398  15.2510416666667 2.44179443498012  C 14.8614583333333 1.58621995078554  14.6666666666667 1.06378951353397  14.6666666666667 0.874503123225441  C 14.6666666666667 0.844217300776073  14.6819444444444 0.81771720613288  14.7125 0.795002839295855  C 14.7430555555556 0.779859928071169  14.8767361111111 0.704145371947758  15.1135416666667 0.567859170925611  C 15.3503472222222 0.431572969903464  15.5756944444444 0.302858224493656  15.7895833333333 0.181714934696195  C 16.0034722222222 0.0605716448987303  16.1180555555556 0  16.1333333333333 0  C 16.1944444444444 0  16.3701388888889 0.176036342986938  16.6604166666667 0.528109028960817  C 16.9506944444444 0.880181714934696  17.1493055555556 1.13571834185122  17.25625 1.29471890971039  C 17.4090277777778 1.27957599848571  17.5236111111111 1.27200454287337  17.6 1.27200454287337  C 17.6763888888889 1.27200454287337  17.7909722222222 1.27957599848571  17.94375 1.29471890971039  C 18.3333333333333 0.757145561234145  18.6847222222222 0.333144046943024  18.9979166666667 0.0227143668370244  L 19.0666666666667 0  C 19.0972222222222 0  19.5708333333333 0.26500094643195  20.4875 0.795002839295855  C 20.5180555555556 0.81771720613288  20.5333333333333 0.844217300776073  20.5333333333333 0.874503123225441  C 20.5333333333333 1.06378951353397  20.3385416666667 1.58621995078554  19.9489583333333 2.44179443498012  C 20.0788194444444 2.61593791406398  20.1934027777778 2.81279575998486  20.2927083333333 3.03236797274276  Z " fill-rule="nonzero" fill="#aaaaaa" stroke="none" transform="matrix(1 0 0 1 15 10 )" />
  </g>
</svg>