<?xml version="1.0" encoding="utf-8"?>
<svg version="1.1" xmlns:xlink="http://www.w3.org/1999/xlink" width="22px" height="17px" xmlns="http://www.w3.org/2000/svg">
  <g transform="matrix(1 0 0 1 -15 -11 )">
    <path d="M 4.125 8.5  L 6.875 8.5  L 6.875 14.1666666666667  L 4.125 14.1666666666667  L 4.125 8.5  Z M 8.25 2.83333333333333  L 11 2.83333333333333  L 11 14.1666666666667  L 8.25 14.1666666666667  L 8.25 2.83333333333333  Z M 1.375 15.5833333333333  L 22 15.5833333333333  L 22 17  L 0 17  L 0 0  L 1.375 0  L 1.375 15.5833333333333  Z M 12.375 5.66666666666667  L 15.125 5.66666666666667  L 15.125 14.1666666666667  L 12.375 14.1666666666667  L 12.375 5.66666666666667  Z M 16.5 1.41666666666667  L 19 1.41666666666667  L 19 14.1666666666667  L 16.5 14.1666666666667  L 16.5 1.41666666666667  Z " fill-rule="nonzero" fill="#aaaaaa" stroke="none" transform="matrix(1 0 0 1 15 11 )" />
  </g>
</svg>