<?xml version="1.0" encoding="utf-8"?>
<svg version="1.1" xmlns:xlink="http://www.w3.org/1999/xlink" width="21px" height="21px" xmlns="http://www.w3.org/2000/svg">
  <g transform="matrix(1 0 0 1 -16 -9 )">
    <path d="M 16.16015625 14.208984375  C 16.83203125 13.212890625  17.19921875 12.10546875  17.26171875 10.88671875  C 17.31640625 9.96484375  17.1875 9.080078125  16.875 8.232421875  C 16.5625 7.384765625  16.12109375 6.646484375  15.55078125 6.017578125  C 14.98046875 5.388671875  14.2890625 4.876953125  13.4765625 4.482421875  C 12.6640625 4.087890625  11.80078125 3.86328125  10.88671875 3.80859375  C 9.98046875 3.75390625  9.099609375 3.87890625  8.244140625 4.18359375  C 7.388671875 4.48828125  6.638671875 4.919921875  5.994140625 5.478515625  C 5.349609375 6.037109375  4.822265625 6.720703125  4.412109375 7.529296875  C 4.001953125 8.337890625  3.76953125 9.19921875  3.71484375 10.11328125  C 3.66015625 11.03515625  3.7890625 11.919921875  4.1015625 12.767578125  C 4.4140625 13.615234375  4.85546875 14.353515625  5.42578125 14.982421875  C 5.99609375 15.611328125  6.689453125 16.123046875  7.505859375 16.517578125  C 8.322265625 16.912109375  9.1875 17.13671875  10.1015625 17.19140625  C 11.3125 17.26171875  12.45703125 17.03125  13.53515625 16.5  C 14.61328125 15.96875  15.48828125 15.205078125  16.16015625 14.208984375  Z M 15.140625 0.773437499999999  C 17.7421875 0.429687499999998  19.6953125 0.171874999999998  21 0  L 16.91015625 4.078125  C 17.84765625 4.9921875  18.552734375 6.0546875  19.025390625 7.265625  C 19.498046875 8.4765625  19.6953125 9.73046875  19.6171875 11.02734375  C 19.53125 12.45703125  19.1328125 13.78125  18.421875 15  C 17.7109375 16.21875  16.76953125 17.216796875  15.59765625 17.994140625  C 14.42578125 18.771484375  13.12890625 19.2578125  11.70703125 19.453125  L 0 21  L 4.06640625 16.93359375  C 3.12890625 16.02734375  2.423828125 14.966796875  1.951171875 13.751953125  C 1.478515625 12.537109375  1.28125 11.28125  1.359375 9.984375  C 1.4453125 8.546875  1.84375 7.21875  2.5546875 6  C 3.265625 4.78125  4.208984375 3.783203125  5.384765625 3.005859375  C 6.560546875 2.228515625  7.859375 1.7421875  9.28125 1.546875  C 10.5859375 1.375  12.5390625 1.1171875  15.140625 0.773437499999999  Z " fill-rule="nonzero" fill="#409eff" stroke="none" transform="matrix(1 0 0 1 16 9 )" />
  </g>
</svg>