<?xml version="1.0" encoding="utf-8"?>
<svg version="1.1" xmlns:xlink="http://www.w3.org/1999/xlink" width="20px" height="21px" xmlns="http://www.w3.org/2000/svg">
  <g transform="matrix(1 0 0 1 -17 -9 )">
    <path d="M 12.6301369863014 7.205078125  L 19.5205479452055 18.046875  C 20.0319634703196 18.8580729166667  20.1301369863014 19.5530598958333  19.8150684931507 20.1318359375  C 19.5 20.7106119791667  18.8584474885845 21  17.8904109589041 21  L 2.10958904109589 21  C 1.14155251141553 21  0.5 20.7106119791667  0.184931506849315 20.1318359375  C -0.13013698630137 19.5530598958333  -0.0319634703196346 18.8580729166667  0.479452054794521 18.046875  L 7.36986301369863 7.205078125  L 7.36986301369863 1.75  L 6.49315068493151 1.75  C 6.25570776255708 1.75  6.05022831050228 1.66341145833333  5.87671232876712 1.490234375  C 5.70319634703196 1.31705729166667  5.61643835616438 1.11197916666667  5.61643835616438 0.874999999999999  C 5.61643835616438 0.63802083333333  5.70319634703196 0.43294270833333  5.87671232876712 0.259765624999999  C 6.05022831050228 0.0865885416666656  6.25570776255708 0  6.49315068493151 0  L 13.5068493150685 0  C 13.7442922374429 0  13.9497716894977 0.0865885416666656  14.1232876712329 0.259765624999999  C 14.296803652968 0.43294270833333  14.3835616438356 0.63802083333333  14.3835616438356 0.874999999999999  C 14.3835616438356 1.11197916666667  14.296803652968 1.31705729166667  14.1232876712329 1.490234375  C 13.9497716894977 1.66341145833333  13.7442922374429 1.75  13.5068493150685 1.75  L 12.6301369863014 1.75  L 12.6301369863014 7.205078125  Z M 9.12328767123288 7.7109375  L 8.84931506849315 8.134765625  L 5.12328767123288 14  L 14.8767123287671 14  L 11.1506849315068 8.134765625  L 10.8767123287671 7.7109375  L 10.8767123287671 7.205078125  L 10.8767123287671 1.75  L 9.12328767123288 1.75  L 9.12328767123288 7.205078125  L 9.12328767123288 7.7109375  Z " fill-rule="nonzero" fill="#409eff" stroke="none" transform="matrix(1 0 0 1 17 9 )" />
  </g>
</svg>