<?xml version="1.0" encoding="utf-8"?>
<svg version="1.1" xmlns:xlink="http://www.w3.org/1999/xlink" width="12px" height="21px" xmlns="http://www.w3.org/2000/svg">
  <g transform="matrix(1 0 0 1 -20 -9 )">
    <path d="M 7.08984375 14.4609375  C 7.36328125 14.8515625  7.5 15.28125  7.5 15.75  C 7.5 16.375  7.28125 16.90625  6.84375 17.34375  C 6.40625 17.78125  5.875 18  5.25 18  C 4.625 18  4.09375 17.78125  3.65625 17.34375  C 3.21875 16.90625  3 16.375  3 15.75  C 3 15.28125  3.13671875 14.8515625  3.41015625 14.4609375  C 3.68359375 14.0703125  4.046875 13.79296875  4.5 13.62890625  L 4.5 9  L 6 9  L 6 13.62890625  C 6.453125 13.79296875  6.81640625 14.0703125  7.08984375 14.4609375  Z M 7.904296875 18.404296875  C 8.634765625 17.673828125  9 16.7890625  9 15.75  C 9 15.1484375  8.8671875 14.5859375  8.6015625 14.0625  C 8.3359375 13.5390625  7.96875 13.1015625  7.5 12.75  L 7.5 3.75  C 7.5 3.125  7.28125 2.59375  6.84375 2.15625  C 6.40625 1.71875  5.875 1.5  5.25 1.5  C 4.625 1.5  4.09375 1.71875  3.65625 2.15625  C 3.21875 2.59375  3 3.125  3 3.75  L 3 12.75  C 2.53125 13.1015625  2.1640625 13.5390625  1.8984375 14.0625  C 1.6328125 14.5859375  1.5 15.1484375  1.5 15.75  C 1.5 16.7890625  1.865234375 17.673828125  2.595703125 18.404296875  C 3.326171875 19.134765625  4.2109375 19.5  5.25 19.5  C 6.2890625 19.5  7.173828125 19.134765625  7.904296875 18.404296875  Z M 9 12.08203125  C 10 13.10546875  10.5 14.328125  10.5 15.75  C 10.5 17.1953125  9.986328125 18.431640625  8.958984375 19.458984375  C 7.931640625 20.486328125  6.6953125 21  5.25 21  C 3.8046875 21  2.568359375 20.486328125  1.541015625 19.458984375  C 0.513671875 18.431640625  0 17.1953125  0 15.75  C 0 14.328125  0.5 13.10546875  1.5 12.08203125  L 1.5 3.75  C 1.5 2.7109375  1.865234375 1.826171875  2.595703125 1.095703125  C 3.326171875 0.365234375000001  4.2109375 0  5.25 0  C 6.2890625 0  7.173828125 0.365234375000001  7.904296875 1.095703125  C 8.634765625 1.826171875  9 2.7109375  9 3.75  L 9 12.08203125  Z M 9.75 9  L 12 9  L 12 10.5  L 9.75 10.5  L 9.75 9  Z M 9.75 6  L 12 6  L 12 7.5  L 9.75 7.5  L 9.75 6  Z M 9.75 3  L 12 3  L 12 4.5  L 9.75 4.5  L 9.75 3  Z " fill-rule="nonzero" fill="#409eff" stroke="none" transform="matrix(1 0 0 1 20 9 )" />
  </g>
</svg>