<?xml version="1.0" encoding="utf-8"?>
<svg version="1.1" xmlns:xlink="http://www.w3.org/1999/xlink" width="22px" height="18px" xmlns="http://www.w3.org/2000/svg">
  <g transform="matrix(1 0 0 1 -15 -11 )">
    <path d="M 6.47058823529412 12.9575892857143  L 6.47058823529412 16.3928571428571  L 10.3529411764706 14.4642857142857  L 10.3529411764706 11.3102678571429  L 6.47058823529412 12.9575892857143  Z M 1.73897058823529 10.0948660714286  L 5.82352941176471 11.8325892857143  L 9.90808823529412 10.0948660714286  L 5.82352941176471 8.35714285714286  L 1.73897058823529 10.0948660714286  Z M 16.8235294117647 12.9575892857143  L 16.8235294117647 16.3928571428571  L 20.7058823529412 14.4642857142857  L 20.7058823529412 11.3102678571429  L 16.8235294117647 12.9575892857143  Z M 12.0919117647059 10.0948660714286  L 16.1764705882353 11.8325892857143  L 20.2610294117647 10.0948660714286  L 16.1764705882353 8.35714285714286  L 12.0919117647059 10.0948660714286  Z M 11.6470588235294 6.20758928571428  L 11.6470588235294 8.88950892857143  L 15.5294117647059 7.23214285714286  L 15.5294117647059 4.56026785714286  L 11.6470588235294 6.20758928571428  Z M 6.54136029411765 3.18415178571429  L 11 5.08258928571428  L 15.4586397058824 3.18415178571429  L 11 1.28571428571429  L 6.54136029411765 3.18415178571429  Z M 21.7876838235294 9.58258928571428  C 21.9292279411765 9.796875  22 10.03125  22 10.2857142857143  L 22 14.4642857142857  C 22 14.7053571428571  21.9359681372549 14.9296875  21.8079044117647 15.1372767857143  C 21.6798406862745 15.3448660714286  21.5045955882353 15.5022321428571  21.2821691176471 15.609375  L 16.7527573529412 17.859375  C 16.5842524509804 17.953125  16.3921568627451 18  16.1764705882353 18  C 15.9607843137255 18  15.7686887254902 17.953125  15.6001838235294 17.859375  L 11.0707720588235 15.609375  C 11.0438112745098 15.5959821428571  11.0202205882353 15.5825892857143  11 15.5691964285714  C 10.9865196078431 15.5825892857143  10.9629289215686 15.5959821428571  10.9292279411765 15.609375  L 6.39981617647059 17.859375  C 6.2313112745098 17.953125  6.03921568627451 18  5.82352941176471 18  C 5.6078431372549 18  5.41574754901961 17.953125  5.24724264705882 17.859375  L 0.717830882352941 15.609375  C 0.495404411764706 15.5022321428571  0.32015931372549 15.3448660714286  0.192095588235294 15.1372767857143  C 0.064031862745098 14.9296875  0 14.7053571428571  0 14.4642857142857  L 0 10.2857142857143  C 0 10.03125  0.0724571078431372 9.796875  0.217371323529412 9.58258928571428  C 0.362285539215686 9.36830357142857  0.552696078431373 9.20758928571429  0.788602941176471 9.10044642857143  L 5.17647058823529 7.23214285714286  L 5.17647058823529 3.21428571428571  C 5.17647058823529 2.95982142857143  5.24892769607843 2.72544642857143  5.39384191176471 2.51116071428571  C 5.53875612745098 2.296875  5.72916666666667 2.13616071428571  5.96507352941176 2.02901785714286  L 10.4944852941176 0.100446428571428  C 10.6495098039216 0.0334821428571452  10.8180147058824 0  11 0  C 11.1819852941176 0  11.3504901960784 0.0334821428571452  11.5055147058824 0.100446428571428  L 16.0349264705882 2.02901785714286  C 16.2708333333333 2.13616071428571  16.461243872549 2.296875  16.6061580882353 2.51116071428571  C 16.7510723039216 2.72544642857143  16.8235294117647 2.95982142857143  16.8235294117647 3.21428571428571  L 16.8235294117647 7.23214285714286  L 21.2113970588235 9.10044642857143  C 21.4540441176471 9.20758928571429  21.6461397058824 9.36830357142857  21.7876838235294 9.58258928571428  Z " fill-rule="nonzero" fill="#aaaaaa" stroke="none" transform="matrix(1 0 0 1 15 11 )" />
  </g>
</svg>