<?xml version="1.0" encoding="utf-8"?>
<svg version="1.1" xmlns:xlink="http://www.w3.org/1999/xlink" width="16px" height="21px" xmlns="http://www.w3.org/2000/svg">
  <g transform="matrix(1 0 0 1 -18 -9 )">
    <path d="M 5.25112781954887 3.111328125  C 4.88621553884712 3.466796875  4.44711779448622 3.64453125  3.93383458646617 3.64453125  C 3.42055137844612 3.64453125  2.97944862155388 3.466796875  2.61052631578947 3.111328125  C 2.24160401002506 2.755859375  2.05714285714286 2.32421875  2.05714285714286 1.81640625  C 2.05714285714286 1.31640625  2.24160401002506 0.888671874999998  2.61052631578947 0.533203125  C 2.97944862155388 0.177734375000002  3.42055137844612 0  3.93383458646617 0  C 4.44711779448622 0  4.88621553884712 0.177734375000002  5.25112781954887 0.533203125  C 5.61604010025063 0.888671874999998  5.7984962406015 1.31640625  5.7984962406015 1.81640625  C 5.7984962406015 2.32421875  5.61604010025063 2.755859375  5.25112781954887 3.111328125  Z M 10.4781954887218 10.828125  C 10.534335839599 10.9296875  10.5624060150376 11.04296875  10.5624060150376 11.16796875  C 10.5624060150376 11.55859375  10.4421052631579 11.822265625  10.2015037593985 11.958984375  C 9.9609022556391 12.095703125  9.7062656641604 12.12109375  9.43759398496241 12.03515625  C 9.16892230576441 11.94921875  8.97844611528822 11.81640625  8.86616541353384 11.63671875  L 4.45112781954887 6.50390625  C 4.39498746867168 6.41015625  4.33884711779449 6.349609375  4.28270676691729 6.322265625  C 4.2265664160401 6.294921875  4.18245614035088 6.2890625  4.15037593984962 6.3046875  L 4.11428571428571 6.33984375  C 4.05814536340852 6.40234375  4.07418546365915 6.484375  4.16240601503759 6.5859375  L 5.63007518796992 8.21484375  L 5.64210526315789 12.36328125  L 3.70526315789474 17.71875  C 3.16791979949875 19.21875  2.79899749373434 20.1328125  2.5984962406015 20.4609375  C 2.4781954887218 20.6640625  2.36591478696742 20.7890625  2.26165413533835 20.8359375  C 1.86065162907268 21.0390625  1.44761904761905 21.04296875  1.02255639097744 20.84765625  C 0.789974937343358 20.74609375  0.623558897243108 20.578125  0.523308270676692 20.34375  C 0.423057644110276 20.109375  0.384962406015038 19.88671875  0.409022556390977 19.67578125  C 0.425062656641604 19.54296875  1.21503759398496 17.12890625  2.77894736842105 12.43359375  L 2.8390977443609 7.55859375  L 1.81654135338346 9.48046875  L 2.23759398496241 12.08203125  C 2.26967418546366 12.26953125  2.265664160401 12.43359375  2.22556390977444 12.57421875  C 2.18546365914787 12.71484375  2.12932330827068 12.822265625  2.05714285714286 12.896484375  C 1.98496240601504 12.970703125  1.90877192982456 13.033203125  1.82857142857143 13.083984375  C 1.7483709273183 13.134765625  1.68020050125313 13.1640625  1.62406015037594 13.171875  L 1.53984962406015 13.1953125  C 1.3874686716792 13.21875  1.24912280701754 13.20703125  1.12481203007519 13.16015625  C 1.00050125313283 13.11328125  0.904260651629073 13.05078125  0.83609022556391 12.97265625  C 0.767919799498747 12.89453125  0.711779448621554 12.80859375  0.667669172932331 12.71484375  C 0.623558897243108 12.62109375  0.593483709273183 12.544921875  0.577443609022556 12.486328125  C 0.56140350877193 12.427734375  0.553383458646617 12.390625  0.553383458646617 12.375  L 0 8.87109375  L 2.53834586466165 4.40625  C 2.72280701754386 4.140625  3.17593984962406 4.0078125  3.89774436090226 4.0078125  C 4.49924812030075 4.0078125  4.92832080200501 4.1640625  5.18496240601504 4.4765625  L 10.2857142857143 10.58203125  C 10.3418546365915 10.62109375  10.3979949874687 10.6875  10.4541353383459 10.78125  L 10.4902255639098 10.81640625  L 10.4781954887218 10.828125  Z M 4.61954887218045 15.890625  L 5.71428571428571 12.92578125  C 6.05914786967419 13.80859375  6.4140350877193 14.6875  6.77894736842105 15.5625  C 7.14385964912281 16.4375  7.42255639097744 17.09375  7.61503759398496 17.53125  L 7.90375939849624 18.17578125  C 8.19248120300752 18.90234375  8.3609022556391 19.390625  8.40902255639098 19.640625  C 8.49724310776942 20.1875  8.35288220551378 20.56640625  7.97593984962406 20.77734375  C 7.6952380952381 20.94921875  7.43057644110276 21.01171875  7.18195488721805 20.96484375  C 6.93333333333333 20.91796875  6.72882205513785 20.83203125  6.56842105263158 20.70703125  C 6.40802005012531 20.58203125  6.29172932330827 20.4453125  6.21954887218045 20.296875  L 6.20751879699248 20.296875  C 6.1593984962406 20.171875  6.12731829573935 20.07421875  6.11127819548872 20.00390625  L 4.61954887218045 15.890625  Z M 10.6586466165414 11.91796875  L 15.6270676691729 19.86328125  C 15.8756892230576 20.24609375  16 20.46875  16 20.53125  C 16 20.5703125  15.987969924812 20.59765625  15.9639097744361 20.61328125  C 15.8917293233083 20.65234375  15.8335839598997 20.650390625  15.7894736842105 20.607421875  C 15.7453634085213 20.564453125  15.6832080200501 20.462890625  15.603007518797 20.302734375  C 15.5228070175439 20.142578125  15.4586466165414 20.0234375  15.4105263157895 19.9453125  C 14.4962406015038 18.6015625  12.8 16.01953125  10.3218045112782 12.19921875  C 10.3458646616541 12.20703125  10.3739348370927 12.203125  10.406015037594 12.1875  C 10.4380952380952 12.171875  10.4661654135338 12.15625  10.4902255639098 12.140625  L 10.5263157894737 12.1171875  C 10.6145363408521 12.046875  10.6586466165414 11.98046875  10.6586466165414 11.91796875  Z " fill-rule="nonzero" fill="#aaaaaa" stroke="none" transform="matrix(1 0 0 1 18 9 )" />
  </g>
</svg>