<?xml version="1.0" encoding="utf-8"?>
<svg version="1.1" xmlns:xlink="http://www.w3.org/1999/xlink" width="20px" height="21px" xmlns="http://www.w3.org/2000/svg">
  <g transform="matrix(1 0 0 1 -16 -9 )">
    <path d="M 16.211943793911 13.1147403685092  C 16.5671350507416 12.2822445561139  16.7447306791569 11.4087102177554  16.7447306791569 10.4941373534338  C 16.7447306791569 9.57956448911223  16.5671350507416 8.70603015075377  16.211943793911 7.87353433835846  C 15.8567525370804 7.04103852596315  15.3766588602654 6.32188721384701  14.771662763466 5.71608040201005  C 14.1666666666667 5.11027359017309  13.4484777517564 4.62953657174763  12.6170960187354 4.27386934673367  C 11.7857142857143 3.91820212171971  10.9133489461358 3.74036850921273  10 3.74036850921273  C 9.08665105386417 3.74036850921273  8.21428571428571 3.91820212171971  7.38290398126464 4.27386934673367  C 6.55152224824356 4.62953657174763  5.83333333333333 5.11027359017309  5.22833723653396 5.71608040201005  C 4.62334113973458 6.32188721384701  4.14324746291959 7.04103852596315  3.78805620608899 7.87353433835846  C 3.43286494925839 8.70603015075377  3.25526932084309 9.57956448911223  3.25526932084309 10.4941373534338  C 3.25526932084309 11.4087102177554  3.43286494925839 12.2822445561139  3.78805620608899 13.1147403685092  C 4.14324746291959 13.9472361809045  4.62334113973458 14.6663874930207  5.22833723653396 15.2721943048576  C 5.83333333333333 15.8780011166946  6.55152224824356 16.35873813512  7.38290398126464 16.714405360134  C 8.21428571428571 17.070072585148  9.08665105386417 17.2479061976549  10 17.2479061976549  C 10.9133489461358 17.2479061976549  11.7857142857143 17.070072585148  12.6170960187354 16.714405360134  C 13.4484777517564 16.35873813512  14.1666666666667 15.8780011166946  14.771662763466 15.2721943048576  C 15.3766588602654 14.6663874930207  15.8567525370804 13.9472361809045  16.211943793911 13.1147403685092  Z M 19.9297423887588 13.4020100502513  C 20 13.4958123953099  20.015612802498 13.6091568955891  19.9765807962529 13.7420435510888  C 19.9453551912568 13.8592964824121  19.8672911787666 13.9374651032942  19.7423887587822 13.9765494137353  L 16.3231850117096 15.1021775544389  L 16.3231850117096 18.6901172529313  C 16.3231850117096 18.8151870463428  16.2724434035909 18.9168062534897  16.1709601873536 18.9949748743719  C 16.0538641686183 19.073143495254  15.9406713505074 19.0887772194305  15.8313817330211 19.0418760469012  L 12.4121779859485 17.9396984924623  L 10.3044496487119 20.8475711892797  C 10.2263856362217 20.9491903964266  10.1249024199844 21  10 21  C 9.87509758001561 21  9.7736143637783 20.9491903964266  9.69555035128806 20.8475711892797  L 7.58782201405152 17.9396984924623  L 4.16861826697892 19.0418760469012  C 4.05932864949258 19.0887772194305  3.94613583138173 19.073143495254  3.82903981264637 18.9949748743719  C 3.72755659640906 18.9168062534897  3.6768149882904 18.8151870463428  3.6768149882904 18.6901172529313  L 3.6768149882904 15.1021775544389  L 0.257611241217799 13.9765494137353  C 0.132708821233411 13.9374651032942  0.0546448087431694 13.8592964824121  0.0234192037470726 13.7420435510888  C -0.0156128024980483 13.6091568955891  0 13.4958123953099  0.0702576112412178 13.4020100502513  L 2.17798594847775 10.4941373534338  L 0.0702576112412178 7.58626465661642  C 0 7.48464544946957  -0.0156128024980483 7.37130094919039  0.0234192037470726 7.24623115577889  C 0.0546448087431694 7.12897822445561  0.132708821233411 7.05080960357342  0.257611241217799 7.01172529313233  L 3.6768149882904 5.88609715242881  L 3.6768149882904 2.29815745393635  C 3.6768149882904 2.17308766052484  3.72755659640906 2.071468453378  3.82903981264637 1.99329983249581  C 3.94613583138173 1.91513121161362  4.05932864949258 1.89949748743718  4.16861826697892 1.9463986599665  L 7.58782201405152 3.04857621440536  L 9.69555035128806 0.140703517587939  C 9.76580796252927 0.0469011725293121  9.86729117876659 0  10 0  C 10.1327088212334 0  10.2341920374707 0.0469011725293121  10.3044496487119 0.140703517587939  L 12.4121779859485 3.04857621440536  L 15.8313817330211 1.9463986599665  C 15.9406713505074 1.89949748743718  16.0538641686183 1.91513121161362  16.1709601873536 1.99329983249581  C 16.2724434035909 2.071468453378  16.3231850117096 2.17308766052484  16.3231850117096 2.29815745393635  L 16.3231850117096 5.88609715242881  L 19.7423887587822 7.01172529313233  C 19.8672911787666 7.05080960357342  19.9453551912568 7.12897822445561  19.9765807962529 7.24623115577889  C 20.015612802498 7.37130094919039  20 7.48464544946957  19.9297423887588 7.58626465661642  L 17.8220140515222 10.4941373534338  L 19.9297423887588 13.4020100502513  Z " fill-rule="nonzero" fill="#aaaaaa" stroke="none" transform="matrix(1 0 0 1 16 9 )" />
  </g>
</svg>