<?xml version="1.0" encoding="utf-8"?>
<svg version="1.1" xmlns:xlink="http://www.w3.org/1999/xlink" width="17px" height="21px" xmlns="http://www.w3.org/2000/svg">
  <g transform="matrix(1 0 0 1 -9 -11 )">
    <path d="M 3.59700520833333 8.49609375  C 5.11697048611111 8.83203125  6.75130208333333 9  8.5 9  C 10.2486979166667 9  11.8830295138889 8.83203125  13.4029947916667 8.49609375  C 14.9229600694444 8.16015625  16.1219618055556 7.6640625  17 7.0078125  L 17 9  C 17 9.5390625  16.6200086805556 10.0390625  15.8600260416667 10.5  C 15.1000434027778 10.9609375  14.0670572916667 11.326171875  12.7610677083333 11.595703125  C 11.455078125 11.865234375  10.0347222222222 12  8.5 12  C 6.96527777777778 12  5.544921875 11.865234375  4.23893229166667 11.595703125  C 2.93294270833333 11.326171875  1.89995659722222 10.9609375  1.13997395833333 10.5  C 0.379991319444444 10.0390625  0 9.5390625  0 9  L 0 7.0078125  C 0.878038194444445 7.6640625  2.07703993055556 8.16015625  3.59700520833333 8.49609375  Z M 3.59700520833333 17.49609375  C 5.11697048611111 17.83203125  6.75130208333333 18  8.5 18  C 10.2486979166667 18  11.8830295138889 17.83203125  13.4029947916667 17.49609375  C 14.9229600694444 17.16015625  16.1219618055556 16.6640625  17 16.0078125  L 17 18  C 17 18.5390625  16.6200086805556 19.0390625  15.8600260416667 19.5  C 15.1000434027778 19.9609375  14.0670572916667 20.326171875  12.7610677083333 20.595703125  C 11.455078125 20.865234375  10.0347222222222 21  8.5 21  C 6.96527777777778 21  5.544921875 20.865234375  4.23893229166667 20.595703125  C 2.93294270833333 20.326171875  1.89995659722222 19.9609375  1.13997395833333 19.5  C 0.379991319444444 19.0390625  0 18.5390625  0 18  L 0 16.0078125  C 0.878038194444445 16.6640625  2.07703993055556 17.16015625  3.59700520833333 17.49609375  Z M 3.59700520833333 12.99609375  C 5.11697048611111 13.33203125  6.75130208333333 13.5  8.5 13.5  C 10.2486979166667 13.5  11.8830295138889 13.33203125  13.4029947916667 12.99609375  C 14.9229600694444 12.66015625  16.1219618055556 12.1640625  17 11.5078125  L 17 13.5  C 17 14.0390625  16.6200086805556 14.5390625  15.8600260416667 15  C 15.1000434027778 15.4609375  14.0670572916667 15.826171875  12.7610677083333 16.095703125  C 11.455078125 16.365234375  10.0347222222222 16.5  8.5 16.5  C 6.96527777777778 16.5  5.544921875 16.365234375  4.23893229166667 16.095703125  C 2.93294270833333 15.826171875  1.89995659722222 15.4609375  1.13997395833333 15  C 0.379991319444444 14.5390625  0 14.0390625  0 13.5  L 0 11.5078125  C 0.878038194444445 12.1640625  2.07703993055556 12.66015625  3.59700520833333 12.99609375  Z M 4.23893229166667 0.404296874999999  C 5.544921875 0.134765625  6.96527777777778 0  8.5 0  C 10.0347222222222 0  11.455078125 0.134765625  12.7610677083333 0.404296874999999  C 14.0670572916667 0.673828125000001  15.1000434027778 1.0390625  15.8600260416667 1.5  C 16.6200086805556 1.9609375  17 2.4609375  17 3  L 17 4.5  C 17 5.0390625  16.6200086805556 5.5390625  15.8600260416667 6  C 15.1000434027778 6.4609375  14.0670572916667 6.826171875  12.7610677083333 7.095703125  C 11.455078125 7.365234375  10.0347222222222 7.5  8.5 7.5  C 6.96527777777778 7.5  5.544921875 7.365234375  4.23893229166667 7.095703125  C 2.93294270833333 6.826171875  1.89995659722222 6.4609375  1.13997395833333 6  C 0.379991319444444 5.5390625  0 5.0390625  0 4.5  L 0 3  C 0 2.4609375  0.379991319444444 1.9609375  1.13997395833333 1.5  C 1.89995659722222 1.0390625  2.93294270833333 0.673828125000001  4.23893229166667 0.404296874999999  Z " fill-rule="nonzero" fill="#ffffff" stroke="none" transform="matrix(1 0 0 1 9 11 )" />
  </g>
</svg>