<?xml version="1.0" encoding="utf-8"?>
<svg version="1.1" xmlns:xlink="http://www.w3.org/1999/xlink" width="21px" height="17px" xmlns="http://www.w3.org/2000/svg">
  <g transform="matrix(1 0 0 1 -7 -13 )">
    <path d="M 4.060546875 11.9108664772727  C 4.353515625 11.6090198863636  4.5 11.2447916666667  4.5 10.8181818181818  C 4.5 10.391571969697  4.353515625 10.02734375  4.060546875 9.72549715909091  C 3.767578125 9.42365056818182  3.4140625 9.27272727272727  3 9.27272727272727  C 2.5859375 9.27272727272727  2.232421875 9.42365056818182  1.939453125 9.72549715909091  C 1.646484375 10.02734375  1.5 10.391571969697  1.5 10.8181818181818  C 1.5 11.2447916666667  1.646484375 11.6090198863636  1.939453125 11.9108664772727  C 2.232421875 12.2127130681818  2.5859375 12.3636363636364  3 12.3636363636364  C 3.4140625 12.3636363636364  3.767578125 12.2127130681818  4.060546875 11.9108664772727  Z M 6.310546875 6.50177556818182  C 6.603515625 6.19992897727273  6.75 5.83570075757576  6.75 5.40909090909091  C 6.75 4.98248106060606  6.603515625 4.61825284090909  6.310546875 4.31640625  C 6.017578125 4.01455965909091  5.6640625 3.86363636363636  5.25 3.86363636363636  C 4.8359375 3.86363636363636  4.482421875 4.01455965909091  4.189453125 4.31640625  C 3.896484375 4.61825284090909  3.75 4.98248106060606  3.75 5.40909090909091  C 3.75 5.83570075757576  3.896484375 6.19992897727273  4.189453125 6.50177556818182  C 4.482421875 6.80362215909091  4.8359375 6.95454545454545  5.25 6.95454545454545  C 5.6640625 6.95454545454545  6.017578125 6.80362215909091  6.310546875 6.50177556818182  Z M 12.609375 12.3153409090909  C 12.4375 11.8565340909091  12.15625 11.4902935606061  11.765625 11.2166193181818  L 12.94921875 6.60440340909091  C 12.99609375 6.3951231060606  12.966796875 6.19992897727273  12.861328125 6.01882102272727  C 12.755859375 5.83771306818182  12.60546875 5.71898674242424  12.41015625 5.66264204545455  C 12.21484375 5.60629734848485  12.02734375 5.63245738636364  11.84765625 5.74112215909091  C 11.66796875 5.84978693181818  11.55078125 6.00875946969697  11.49609375 6.21803977272727  L 10.3125 10.8302556818182  C 9.84375 10.8705018939394  9.42578125 11.0455729166667  9.05859375 11.35546875  C 8.69140625 11.6653645833333  8.4453125 12.0617897727273  8.3203125 12.5447443181818  C 8.1640625 13.1645359848485  8.2421875 13.7521306818182  8.5546875 14.3075284090909  C 8.8671875 14.8629261363636  9.32421875 15.2211174242424  9.92578125 15.3821022727273  C 10.52734375 15.5430871212121  11.09765625 15.4625946969697  11.63671875 15.140625  C 12.17578125 14.8186553030303  12.5234375 14.3477746212121  12.6796875 13.7279829545455  C 12.8046875 13.2450284090909  12.78125 12.7741477272727  12.609375 12.3153409090909  Z M 19.060546875 11.9108664772727  C 19.353515625 11.6090198863636  19.5 11.2447916666667  19.5 10.8181818181818  C 19.5 10.391571969697  19.353515625 10.02734375  19.060546875 9.72549715909091  C 18.767578125 9.42365056818182  18.4140625 9.27272727272727  18 9.27272727272727  C 17.5859375 9.27272727272727  17.232421875 9.42365056818182  16.939453125 9.72549715909091  C 16.646484375 10.02734375  16.5 10.391571969697  16.5 10.8181818181818  C 16.5 11.2447916666667  16.646484375 11.6090198863636  16.939453125 11.9108664772727  C 17.232421875 12.2127130681818  17.5859375 12.3636363636364  18 12.3636363636364  C 18.4140625 12.3636363636364  18.767578125 12.2127130681818  19.060546875 11.9108664772727  Z M 11.560546875 4.18359375  C 11.853515625 3.88174715909091  12 3.51751893939394  12 3.09090909090909  C 12 2.66429924242424  11.853515625 2.30007102272727  11.560546875 1.99822443181818  C 11.267578125 1.69637784090909  10.9140625 1.54545454545455  10.5 1.54545454545455  C 10.0859375 1.54545454545455  9.732421875 1.69637784090909  9.439453125 1.99822443181818  C 9.146484375 2.30007102272727  9 2.66429924242424  9 3.09090909090909  C 9 3.51751893939394  9.146484375 3.88174715909091  9.439453125 4.18359375  C 9.732421875 4.48544034090909  10.0859375 4.63636363636364  10.5 4.63636363636364  C 10.9140625 4.63636363636364  11.267578125 4.48544034090909  11.560546875 4.18359375  Z M 16.810546875 6.50177556818182  C 17.103515625 6.19992897727273  17.25 5.83570075757576  17.25 5.40909090909091  C 17.25 4.98248106060606  17.103515625 4.61825284090909  16.810546875 4.31640625  C 16.517578125 4.01455965909091  16.1640625 3.86363636363636  15.75 3.86363636363636  C 15.3359375 3.86363636363636  14.982421875 4.01455965909091  14.689453125 4.31640625  C 14.396484375 4.61825284090909  14.25 4.98248106060606  14.25 5.40909090909091  C 14.25 5.83570075757576  14.396484375 6.19992897727273  14.689453125 6.50177556818182  C 14.982421875 6.80362215909091  15.3359375 6.95454545454545  15.75 6.95454545454545  C 16.1640625 6.95454545454545  16.517578125 6.80362215909091  16.810546875 6.50177556818182  Z M 20.16796875 6.61647727272727  C 20.72265625 7.95265151515151  21 9.3532196969697  21 10.8181818181818  C 21 12.9190340909091  20.44921875 14.8629261363636  19.34765625 16.6498579545455  C 19.19921875 16.8832859848485  18.98828125 17  18.71484375 17  L 2.28515625 17  C 2.01171875 17  1.80078125 16.8832859848485  1.65234375 16.6498579545455  C 0.55078125 14.8709753787879  0 12.9270833333333  0 10.8181818181818  C 0 9.3532196969697  0.27734375 7.95265151515151  0.83203125 6.61647727272727  C 1.38671875 5.28030303030303  2.1328125 4.12926136363636  3.0703125 3.16335227272727  C 4.0078125 2.19744318181818  5.125 1.42874053030303  6.421875 0.857244318181818  C 7.71875 0.285748106060605  9.078125 0  10.5 0  C 11.921875 0  13.28125 0.285748106060605  14.578125 0.857244318181818  C 15.875 1.42874053030303  16.9921875 2.19744318181818  17.9296875 3.16335227272727  C 18.8671875 4.12926136363636  19.61328125 5.28030303030303  20.16796875 6.61647727272727  Z " fill-rule="nonzero" fill="#53a7fe" stroke="none" transform="matrix(1 0 0 1 7 13 )" />
  </g>
</svg>