<?xml version="1.0" encoding="utf-8"?>
<svg version="1.1" xmlns:xlink="http://www.w3.org/1999/xlink" width="21px" height="21px" xmlns="http://www.w3.org/2000/svg">
  <g transform="matrix(1 0 0 1 -16 -9 )">
    <path d="M 12.974609375 8.025390625  C 13.658203125 8.708984375  14 9.53385416666666  14 10.5  C 14 11.4661458333333  13.658203125 12.291015625  12.974609375 12.974609375  C 12.291015625 13.658203125  11.4661458333333 14  10.5 14  C 9.53385416666667 14  8.708984375 13.658203125  8.025390625 12.974609375  C 7.341796875 12.291015625  7 11.4661458333333  7 10.5  C 7 9.53385416666666  7.341796875 8.708984375  8.025390625 8.025390625  C 8.708984375 7.341796875  9.53385416666667 7  10.5 7  C 11.4661458333333 7  12.291015625 7.341796875  12.974609375 8.025390625  Z M 14.2119140625 14.2119140625  C 15.2373046875 13.1865234375  15.75 11.94921875  15.75 10.5  C 15.75 9.05078125  15.2373046875 7.8134765625  14.2119140625 6.7880859375  C 13.1865234375 5.7626953125  11.94921875 5.25  10.5 5.25  C 9.05078125 5.25  7.8134765625 5.7626953125  6.7880859375 6.7880859375  C 5.7626953125 7.8134765625  5.25 9.05078125  5.25 10.5  C 5.25 11.94921875  5.7626953125 13.1865234375  6.7880859375 14.2119140625  C 7.8134765625 15.2373046875  9.05078125 15.75  10.5 15.75  C 11.94921875 15.75  13.1865234375 15.2373046875  14.2119140625 14.2119140625  Z M 15.44921875 5.55078125  C 16.81640625 6.91796875  17.5 8.56770833333333  17.5 10.5  C 17.5 12.4322916666667  16.81640625 14.08203125  15.44921875 15.44921875  C 14.08203125 16.81640625  12.4322916666667 17.5  10.5 17.5  C 8.56770833333333 17.5  6.91796875 16.81640625  5.55078125 15.44921875  C 4.18359375 14.08203125  3.5 12.4322916666667  3.5 10.5  C 3.5 8.56770833333333  4.18359375 6.91796875  5.55078125 5.55078125  C 6.91796875 4.18359375  8.56770833333333 3.5  10.5 3.5  C 12.4322916666667 3.5  14.08203125 4.18359375  15.44921875 5.55078125  Z M 18.552734375 13.8974609375  C 19.017578125 12.8173828125  19.25 11.6848958333333  19.25 10.5  C 19.25 9.31510416666667  19.017578125 8.1826171875  18.552734375 7.1025390625  C 18.087890625 6.0224609375  17.4658203125 5.0927734375  16.6865234375 4.3134765625  C 15.9072265625 3.5341796875  14.9775390625 2.912109375  13.8974609375 2.447265625  C 12.8173828125 1.982421875  11.6848958333333 1.75  10.5 1.75  C 9.31510416666667 1.75  8.1826171875 1.982421875  7.1025390625 2.447265625  C 6.0224609375 2.912109375  5.0927734375 3.5341796875  4.3134765625 4.3134765625  C 3.5341796875 5.0927734375  2.912109375 6.0224609375  2.447265625 7.1025390625  C 1.982421875 8.1826171875  1.75 9.31510416666667  1.75 10.5  C 1.75 11.6848958333333  1.982421875 12.8173828125  2.447265625 13.8974609375  C 2.912109375 14.9775390625  3.5341796875 15.9072265625  4.3134765625 16.6865234375  C 5.0927734375 17.4658203125  6.0224609375 18.087890625  7.1025390625 18.552734375  C 8.1826171875 19.017578125  9.31510416666667 19.25  10.5 19.25  C 11.6848958333333 19.25  12.8173828125 19.017578125  13.8974609375 18.552734375  C 14.9775390625 18.087890625  15.9072265625 17.4658203125  16.6865234375 16.6865234375  C 17.4658203125 15.9072265625  18.087890625 14.9775390625  18.552734375 13.8974609375  Z M 19.591796875 5.2294921875  C 20.5305989583333 6.83821614583333  21 8.59505208333333  21 10.5  C 21 12.4049479166667  20.5305989583333 14.1617838541667  19.591796875 15.7705078125  C 18.6529947916667 17.3792317708333  17.3792317708333 18.6529947916667  15.7705078125 19.591796875  C 14.1617838541667 20.5305989583333  12.4049479166667 21  10.5 21  C 8.59505208333333 21  6.83821614583333 20.5305989583333  5.2294921875 19.591796875  C 3.62076822916667 18.6529947916667  2.34700520833333 17.3792317708333  1.408203125 15.7705078125  C 0.469401041666667 14.1617838541667  0 12.4049479166667  0 10.5  C 0 8.59505208333333  0.469401041666667 6.83821614583333  1.408203125 5.2294921875  C 2.34700520833333 3.62076822916667  3.62076822916667 2.34700520833333  5.2294921875 1.408203125  C 6.83821614583333 0.469401041666665  8.59505208333333 0  10.5 0  C 12.4049479166667 0  14.1617838541667 0.469401041666665  15.7705078125 1.408203125  C 17.3792317708333 2.34700520833333  18.6529947916667 3.62076822916667  19.591796875 5.2294921875  Z " fill-rule="nonzero" fill="#409eff" stroke="none" transform="matrix(1 0 0 1 16 9 )" />
  </g>
</svg>