<?xml version="1.0" encoding="utf-8"?>
<svg version="1.1" xmlns:xlink="http://www.w3.org/1999/xlink" width="22px" height="21px" xmlns="http://www.w3.org/2000/svg">
  <g transform="matrix(1 0 0 1 -15 -9 )">
    <path d="M 21.2596153846154 7.52930056710775  C 21.7532051282051 7.60869565217391  22 7.81159420289855  22 8.13799621928166  C 22 8.33207309388784  21.8854166666667 8.54379332073094  21.65625 8.77315689981096  L 16.8569711538462 13.4574669187146  L 17.9939903846154 20.0737240075614  C 18.0028044871795 20.1354757403907  18.0072115384615 20.2236925015753  18.0072115384615 20.3383742911153  C 18.0072115384615 20.523629489603  17.9609375 20.6802142407057  17.8683894230769 20.8081285444234  C 17.7758413461538 20.9360428481411  17.6414262820513 21  17.4651442307692 21  C 17.2976762820513 21  17.1213942307692 20.9470699432892  16.9362980769231 20.8412098298677  L 11 17.7183364839319  L 5.06370192307692 20.8412098298677  C 4.86979166666667 20.9470699432892  4.69350961538462 21  4.53485576923077 21  C 4.34975961538462 21  4.2109375 20.9360428481411  4.11838942307692 20.8081285444234  C 4.02584134615385 20.6802142407057  3.97956730769231 20.523629489603  3.97956730769231 20.3383742911153  C 3.97956730769231 20.2854442344045  3.98838141025641 20.1972274732199  4.00600961538462 20.0737240075614  L 5.14302884615385 13.4574669187146  L 0.330528846153846 8.77315689981096  C 0.110176282051282 8.53497164461248  0 8.32325141776938  0 8.13799621928166  C 0 7.81159420289855  0.246794871794872 7.60869565217391  0.740384615384615 7.52930056710775  L 7.37740384615385 6.5633270321361  L 10.3521634615385 0.542533081285443  C 10.5196314102564 0.18084436042848  10.7355769230769 0  11 0  C 11.2644230769231 0  11.4803685897436 0.18084436042848  11.6478365384615 0.542533081285443  L 14.6225961538462 6.5633270321361  L 21.2596153846154 7.52930056710775  Z " fill-rule="nonzero" fill="#aaaaaa" stroke="none" transform="matrix(1 0 0 1 15 9 )" />
  </g>
</svg>